<?xml version="1.0" encoding="utf-8" standalone="no"?>
<!DOCTYPE svg PUBLIC "-//W3C//DTD SVG 1.1//EN"
  "http://www.w3.org/Graphics/SVG/1.1/DTD/svg11.dtd">
<svg xmlns:xlink="http://www.w3.org/1999/xlink" width="720pt" height="360pt" viewBox="0 0 720 360" xmlns="http://www.w3.org/2000/svg" version="1.1">
 <metadata>
  <rdf:RDF xmlns:dc="http://purl.org/dc/elements/1.1/" xmlns:cc="http://creativecommons.org/ns#" xmlns:rdf="http://www.w3.org/1999/02/22-rdf-syntax-ns#">
   <cc:Work>
    <dc:type rdf:resource="http://purl.org/dc/dcmitype/StillImage"/>
    <dc:date>2022-12-01T08:51:17.882708</dc:date>
    <dc:format>image/svg+xml</dc:format>
    <dc:creator>
     <cc:Agent>
      <dc:title>Matplotlib v3.6.1, https://matplotlib.org/</dc:title>
     </cc:Agent>
    </dc:creator>
   </cc:Work>
  </rdf:RDF>
 </metadata>
 <defs>
  <style type="text/css">*{stroke-linejoin: round; stroke-linecap: butt}</style>
 </defs>
 <g id="figure_1">
  <g id="patch_1">
   <path d="M 0 360 
L 720 360 
L 720 0 
L 0 0 
z
" style="fill: #ffffff"/>
  </g>
  <g id="axes_1">
   <g id="patch_2">
    <path d="M 44.57 332.12 
L 709.2 332.12 
L 709.2 14.76 
L 44.57 14.76 
z
" style="fill: #ffffff"/>
   </g>
   <g id="patch_3">
    <path d="M 74.780455 332.12 
L 106.580933 332.12 
L 106.580933 190.758789 
L 74.780455 190.758789 
z
" clip-path="url(#p722c75b004)" style="fill: url(#h8122e6e1ab)"/>
   </g>
   <g id="patch_4">
    <path d="M 233.782847 332.12 
L 265.583325 332.12 
L 265.583325 191.302834 
L 233.782847 191.302834 
z
" clip-path="url(#p722c75b004)" style="fill: url(#h8122e6e1ab)"/>
   </g>
   <g id="patch_5">
    <path d="M 392.785239 332.12 
L 424.585718 332.12 
L 424.585718 111.600137 
L 392.785239 111.600137 
z
" clip-path="url(#p722c75b004)" style="fill: url(#h8122e6e1ab)"/>
   </g>
   <g id="patch_6">
    <path d="M 551.787632 332.12 
L 583.58811 332.12 
L 583.58811 231.370794 
L 551.787632 231.370794 
z
" clip-path="url(#p722c75b004)" style="fill: url(#h8122e6e1ab)"/>
   </g>
   <g id="patch_7">
    <path d="M 106.580933 332.12 
L 138.381411 332.12 
L 138.381411 188.129234 
L 106.580933 188.129234 
z
" clip-path="url(#p722c75b004)" style="fill: url(#h0d1ebffa7c)"/>
   </g>
   <g id="patch_8">
    <path d="M 265.583325 332.12 
L 297.383804 332.12 
L 297.383804 155.849189 
L 265.583325 155.849189 
z
" clip-path="url(#p722c75b004)" style="fill: url(#h0d1ebffa7c)"/>
   </g>
   <g id="patch_9">
    <path d="M 424.585718 332.12 
L 456.386196 332.12 
L 456.386196 70.706034 
L 424.585718 70.706034 
z
" clip-path="url(#p722c75b004)" style="fill: url(#h0d1ebffa7c)"/>
   </g>
   <g id="patch_10">
    <path d="M 583.58811 332.12 
L 615.388589 332.12 
L 615.388589 29.872381 
L 583.58811 29.872381 
z
" clip-path="url(#p722c75b004)" style="fill: url(#h0d1ebffa7c)"/>
   </g>
   <g id="patch_11">
    <path d="M 138.381411 332.12 
L 170.18189 332.12 
L 170.18189 189.217326 
L 138.381411 189.217326 
z
" clip-path="url(#p722c75b004)" style="fill: url(#hb267573a9b)"/>
   </g>
   <g id="patch_12">
    <path d="M 297.383804 332.12 
L 329.184282 332.12 
L 329.184282 174.256069 
L 297.383804 174.256069 
z
" clip-path="url(#p722c75b004)" style="fill: url(#hb267573a9b)"/>
   </g>
   <g id="patch_13">
    <path d="M 456.386196 332.12 
L 488.186675 332.12 
L 488.186675 88.206171 
L 456.386196 88.206171 
z
" clip-path="url(#p722c75b004)" style="fill: url(#hb267573a9b)"/>
   </g>
   <g id="patch_14">
    <path d="M 615.388589 332.12 
L 647.189067 332.12 
L 647.189067 231.370794 
L 615.388589 231.370794 
z
" clip-path="url(#p722c75b004)" style="fill: url(#hb267573a9b)"/>
   </g>
   <g id="patch_15">
    <path d="M 170.18189 332.12 
L 201.982368 332.12 
L 201.982368 173.258651 
L 170.18189 173.258651 
z
" clip-path="url(#p722c75b004)" style="fill: url(#hf32ccce3f5)"/>
   </g>
   <g id="patch_16">
    <path d="M 329.184282 332.12 
L 360.984761 332.12 
L 360.984761 137.986354 
L 329.184282 137.986354 
z
" clip-path="url(#p722c75b004)" style="fill: url(#hf32ccce3f5)"/>
   </g>
   <g id="patch_17">
    <path d="M 488.186675 332.12 
L 519.987153 332.12 
L 519.987153 94.73472 
L 488.186675 94.73472 
z
" clip-path="url(#p722c75b004)" style="fill: url(#hf32ccce3f5)"/>
   </g>
   <g id="patch_18">
    <path d="M 647.189067 332.12 
L 678.989545 332.12 
L 678.989545 294.339048 
L 647.189067 294.339048 
z
" clip-path="url(#p722c75b004)" style="fill: url(#hf32ccce3f5)"/>
   </g>
   <g id="matplotlib.axis_1">
    <g id="xtick_1">
     <g id="line2d_1">
      <defs>
       <path id="mc559ee4b65" d="M 0 0 
L 0 3.5 
" style="stroke: #000000; stroke-width: 0.8"/>
      </defs>
      <g>
       <use xlink:href="#mc559ee4b65" x="122.481172" y="332.12" style="stroke: #000000; stroke-width: 0.8"/>
      </g>
     </g>
     <g id="text_1">
      <!-- Fanpage -->
      <g transform="translate(101.339766 346.718437) scale(0.1 -0.1)">
       <defs>
        <path id="DejaVuSans-46" d="M 628 4666 
L 3309 4666 
L 3309 4134 
L 1259 4134 
L 1259 2759 
L 3109 2759 
L 3109 2228 
L 1259 2228 
L 1259 0 
L 628 0 
L 628 4666 
z
" transform="scale(0.015625)"/>
        <path id="DejaVuSans-61" d="M 2194 1759 
Q 1497 1759 1228 1600 
Q 959 1441 959 1056 
Q 959 750 1161 570 
Q 1363 391 1709 391 
Q 2188 391 2477 730 
Q 2766 1069 2766 1631 
L 2766 1759 
L 2194 1759 
z
M 3341 1997 
L 3341 0 
L 2766 0 
L 2766 531 
Q 2569 213 2275 61 
Q 1981 -91 1556 -91 
Q 1019 -91 701 211 
Q 384 513 384 1019 
Q 384 1609 779 1909 
Q 1175 2209 1959 2209 
L 2766 2209 
L 2766 2266 
Q 2766 2663 2505 2880 
Q 2244 3097 1772 3097 
Q 1472 3097 1187 3025 
Q 903 2953 641 2809 
L 641 3341 
Q 956 3463 1253 3523 
Q 1550 3584 1831 3584 
Q 2591 3584 2966 3190 
Q 3341 2797 3341 1997 
z
" transform="scale(0.015625)"/>
        <path id="DejaVuSans-6e" d="M 3513 2113 
L 3513 0 
L 2938 0 
L 2938 2094 
Q 2938 2591 2744 2837 
Q 2550 3084 2163 3084 
Q 1697 3084 1428 2787 
Q 1159 2491 1159 1978 
L 1159 0 
L 581 0 
L 581 3500 
L 1159 3500 
L 1159 2956 
Q 1366 3272 1645 3428 
Q 1925 3584 2291 3584 
Q 2894 3584 3203 3211 
Q 3513 2838 3513 2113 
z
" transform="scale(0.015625)"/>
        <path id="DejaVuSans-70" d="M 1159 525 
L 1159 -1331 
L 581 -1331 
L 581 3500 
L 1159 3500 
L 1159 2969 
Q 1341 3281 1617 3432 
Q 1894 3584 2278 3584 
Q 2916 3584 3314 3078 
Q 3713 2572 3713 1747 
Q 3713 922 3314 415 
Q 2916 -91 2278 -91 
Q 1894 -91 1617 61 
Q 1341 213 1159 525 
z
M 3116 1747 
Q 3116 2381 2855 2742 
Q 2594 3103 2138 3103 
Q 1681 3103 1420 2742 
Q 1159 2381 1159 1747 
Q 1159 1113 1420 752 
Q 1681 391 2138 391 
Q 2594 391 2855 752 
Q 3116 1113 3116 1747 
z
" transform="scale(0.015625)"/>
        <path id="DejaVuSans-67" d="M 2906 1791 
Q 2906 2416 2648 2759 
Q 2391 3103 1925 3103 
Q 1463 3103 1205 2759 
Q 947 2416 947 1791 
Q 947 1169 1205 825 
Q 1463 481 1925 481 
Q 2391 481 2648 825 
Q 2906 1169 2906 1791 
z
M 3481 434 
Q 3481 -459 3084 -895 
Q 2688 -1331 1869 -1331 
Q 1566 -1331 1297 -1286 
Q 1028 -1241 775 -1147 
L 775 -588 
Q 1028 -725 1275 -790 
Q 1522 -856 1778 -856 
Q 2344 -856 2625 -561 
Q 2906 -266 2906 331 
L 2906 616 
Q 2728 306 2450 153 
Q 2172 0 1784 0 
Q 1141 0 747 490 
Q 353 981 353 1791 
Q 353 2603 747 3093 
Q 1141 3584 1784 3584 
Q 2172 3584 2450 3431 
Q 2728 3278 2906 2969 
L 2906 3500 
L 3481 3500 
L 3481 434 
z
" transform="scale(0.015625)"/>
        <path id="DejaVuSans-65" d="M 3597 1894 
L 3597 1613 
L 953 1613 
Q 991 1019 1311 708 
Q 1631 397 2203 397 
Q 2534 397 2845 478 
Q 3156 559 3463 722 
L 3463 178 
Q 3153 47 2828 -22 
Q 2503 -91 2169 -91 
Q 1331 -91 842 396 
Q 353 884 353 1716 
Q 353 2575 817 3079 
Q 1281 3584 2069 3584 
Q 2775 3584 3186 3129 
Q 3597 2675 3597 1894 
z
M 3022 2063 
Q 3016 2534 2758 2815 
Q 2500 3097 2075 3097 
Q 1594 3097 1305 2825 
Q 1016 2553 972 2059 
L 3022 2063 
z
" transform="scale(0.015625)"/>
       </defs>
       <use xlink:href="#DejaVuSans-46"/>
       <use xlink:href="#DejaVuSans-61" x="48.394531"/>
       <use xlink:href="#DejaVuSans-6e" x="109.673828"/>
       <use xlink:href="#DejaVuSans-70" x="173.052734"/>
       <use xlink:href="#DejaVuSans-61" x="236.529297"/>
       <use xlink:href="#DejaVuSans-67" x="297.808594"/>
       <use xlink:href="#DejaVuSans-65" x="361.285156"/>
      </g>
     </g>
    </g>
    <g id="xtick_2">
     <g id="line2d_2">
      <g>
       <use xlink:href="#mc559ee4b65" x="281.483565" y="332.12" style="stroke: #000000; stroke-width: 0.8"/>
      </g>
     </g>
     <g id="text_2">
      <!-- IlPost -->
      <g transform="translate(268.16169 346.718437) scale(0.1 -0.1)">
       <defs>
        <path id="DejaVuSans-49" d="M 628 4666 
L 1259 4666 
L 1259 0 
L 628 0 
L 628 4666 
z
" transform="scale(0.015625)"/>
        <path id="DejaVuSans-6c" d="M 603 4863 
L 1178 4863 
L 1178 0 
L 603 0 
L 603 4863 
z
" transform="scale(0.015625)"/>
        <path id="DejaVuSans-50" d="M 1259 4147 
L 1259 2394 
L 2053 2394 
Q 2494 2394 2734 2622 
Q 2975 2850 2975 3272 
Q 2975 3691 2734 3919 
Q 2494 4147 2053 4147 
L 1259 4147 
z
M 628 4666 
L 2053 4666 
Q 2838 4666 3239 4311 
Q 3641 3956 3641 3272 
Q 3641 2581 3239 2228 
Q 2838 1875 2053 1875 
L 1259 1875 
L 1259 0 
L 628 0 
L 628 4666 
z
" transform="scale(0.015625)"/>
        <path id="DejaVuSans-6f" d="M 1959 3097 
Q 1497 3097 1228 2736 
Q 959 2375 959 1747 
Q 959 1119 1226 758 
Q 1494 397 1959 397 
Q 2419 397 2687 759 
Q 2956 1122 2956 1747 
Q 2956 2369 2687 2733 
Q 2419 3097 1959 3097 
z
M 1959 3584 
Q 2709 3584 3137 3096 
Q 3566 2609 3566 1747 
Q 3566 888 3137 398 
Q 2709 -91 1959 -91 
Q 1206 -91 779 398 
Q 353 888 353 1747 
Q 353 2609 779 3096 
Q 1206 3584 1959 3584 
z
" transform="scale(0.015625)"/>
        <path id="DejaVuSans-73" d="M 2834 3397 
L 2834 2853 
Q 2591 2978 2328 3040 
Q 2066 3103 1784 3103 
Q 1356 3103 1142 2972 
Q 928 2841 928 2578 
Q 928 2378 1081 2264 
Q 1234 2150 1697 2047 
L 1894 2003 
Q 2506 1872 2764 1633 
Q 3022 1394 3022 966 
Q 3022 478 2636 193 
Q 2250 -91 1575 -91 
Q 1294 -91 989 -36 
Q 684 19 347 128 
L 347 722 
Q 666 556 975 473 
Q 1284 391 1588 391 
Q 1994 391 2212 530 
Q 2431 669 2431 922 
Q 2431 1156 2273 1281 
Q 2116 1406 1581 1522 
L 1381 1569 
Q 847 1681 609 1914 
Q 372 2147 372 2553 
Q 372 3047 722 3315 
Q 1072 3584 1716 3584 
Q 2034 3584 2315 3537 
Q 2597 3491 2834 3397 
z
" transform="scale(0.015625)"/>
        <path id="DejaVuSans-74" d="M 1172 4494 
L 1172 3500 
L 2356 3500 
L 2356 3053 
L 1172 3053 
L 1172 1153 
Q 1172 725 1289 603 
Q 1406 481 1766 481 
L 2356 481 
L 2356 0 
L 1766 0 
Q 1100 0 847 248 
Q 594 497 594 1153 
L 594 3053 
L 172 3053 
L 172 3500 
L 594 3500 
L 594 4494 
L 1172 4494 
z
" transform="scale(0.015625)"/>
       </defs>
       <use xlink:href="#DejaVuSans-49"/>
       <use xlink:href="#DejaVuSans-6c" x="29.492188"/>
       <use xlink:href="#DejaVuSans-50" x="57.275391"/>
       <use xlink:href="#DejaVuSans-6f" x="113.953125"/>
       <use xlink:href="#DejaVuSans-73" x="175.134766"/>
       <use xlink:href="#DejaVuSans-74" x="227.234375"/>
      </g>
     </g>
    </g>
    <g id="xtick_3">
     <g id="line2d_3">
      <g>
       <use xlink:href="#mc559ee4b65" x="440.485957" y="332.12" style="stroke: #000000; stroke-width: 0.8"/>
      </g>
     </g>
     <g id="text_3">
      <!-- WITS -->
      <g transform="translate(427.839082 346.718437) scale(0.1 -0.1)">
       <defs>
        <path id="DejaVuSans-57" d="M 213 4666 
L 850 4666 
L 1831 722 
L 2809 4666 
L 3519 4666 
L 4500 722 
L 5478 4666 
L 6119 4666 
L 4947 0 
L 4153 0 
L 3169 4050 
L 2175 0 
L 1381 0 
L 213 4666 
z
" transform="scale(0.015625)"/>
        <path id="DejaVuSans-54" d="M -19 4666 
L 3928 4666 
L 3928 4134 
L 2272 4134 
L 2272 0 
L 1638 0 
L 1638 4134 
L -19 4134 
L -19 4666 
z
" transform="scale(0.015625)"/>
        <path id="DejaVuSans-53" d="M 3425 4513 
L 3425 3897 
Q 3066 4069 2747 4153 
Q 2428 4238 2131 4238 
Q 1616 4238 1336 4038 
Q 1056 3838 1056 3469 
Q 1056 3159 1242 3001 
Q 1428 2844 1947 2747 
L 2328 2669 
Q 3034 2534 3370 2195 
Q 3706 1856 3706 1288 
Q 3706 609 3251 259 
Q 2797 -91 1919 -91 
Q 1588 -91 1214 -16 
Q 841 59 441 206 
L 441 856 
Q 825 641 1194 531 
Q 1563 422 1919 422 
Q 2459 422 2753 634 
Q 3047 847 3047 1241 
Q 3047 1584 2836 1778 
Q 2625 1972 2144 2069 
L 1759 2144 
Q 1053 2284 737 2584 
Q 422 2884 422 3419 
Q 422 4038 858 4394 
Q 1294 4750 2059 4750 
Q 2388 4750 2728 4690 
Q 3069 4631 3425 4513 
z
" transform="scale(0.015625)"/>
       </defs>
       <use xlink:href="#DejaVuSans-57"/>
       <use xlink:href="#DejaVuSans-49" x="98.876953"/>
       <use xlink:href="#DejaVuSans-54" x="128.369141"/>
       <use xlink:href="#DejaVuSans-53" x="189.453125"/>
      </g>
     </g>
    </g>
    <g id="xtick_4">
     <g id="line2d_4">
      <g>
       <use xlink:href="#mc559ee4b65" x="599.488349" y="332.12" style="stroke: #000000; stroke-width: 0.8"/>
      </g>
     </g>
     <g id="text_4">
      <!-- Summaries/sec -->
      <g transform="translate(561.100068 346.718437) scale(0.1 -0.1)">
       <defs>
        <path id="DejaVuSans-75" d="M 544 1381 
L 544 3500 
L 1119 3500 
L 1119 1403 
Q 1119 906 1312 657 
Q 1506 409 1894 409 
Q 2359 409 2629 706 
Q 2900 1003 2900 1516 
L 2900 3500 
L 3475 3500 
L 3475 0 
L 2900 0 
L 2900 538 
Q 2691 219 2414 64 
Q 2138 -91 1772 -91 
Q 1169 -91 856 284 
Q 544 659 544 1381 
z
M 1991 3584 
L 1991 3584 
z
" transform="scale(0.015625)"/>
        <path id="DejaVuSans-6d" d="M 3328 2828 
Q 3544 3216 3844 3400 
Q 4144 3584 4550 3584 
Q 5097 3584 5394 3201 
Q 5691 2819 5691 2113 
L 5691 0 
L 5113 0 
L 5113 2094 
Q 5113 2597 4934 2840 
Q 4756 3084 4391 3084 
Q 3944 3084 3684 2787 
Q 3425 2491 3425 1978 
L 3425 0 
L 2847 0 
L 2847 2094 
Q 2847 2600 2669 2842 
Q 2491 3084 2119 3084 
Q 1678 3084 1418 2786 
Q 1159 2488 1159 1978 
L 1159 0 
L 581 0 
L 581 3500 
L 1159 3500 
L 1159 2956 
Q 1356 3278 1631 3431 
Q 1906 3584 2284 3584 
Q 2666 3584 2933 3390 
Q 3200 3197 3328 2828 
z
" transform="scale(0.015625)"/>
        <path id="DejaVuSans-72" d="M 2631 2963 
Q 2534 3019 2420 3045 
Q 2306 3072 2169 3072 
Q 1681 3072 1420 2755 
Q 1159 2438 1159 1844 
L 1159 0 
L 581 0 
L 581 3500 
L 1159 3500 
L 1159 2956 
Q 1341 3275 1631 3429 
Q 1922 3584 2338 3584 
Q 2397 3584 2469 3576 
Q 2541 3569 2628 3553 
L 2631 2963 
z
" transform="scale(0.015625)"/>
        <path id="DejaVuSans-69" d="M 603 3500 
L 1178 3500 
L 1178 0 
L 603 0 
L 603 3500 
z
M 603 4863 
L 1178 4863 
L 1178 4134 
L 603 4134 
L 603 4863 
z
" transform="scale(0.015625)"/>
        <path id="DejaVuSans-2f" d="M 1625 4666 
L 2156 4666 
L 531 -594 
L 0 -594 
L 1625 4666 
z
" transform="scale(0.015625)"/>
        <path id="DejaVuSans-63" d="M 3122 3366 
L 3122 2828 
Q 2878 2963 2633 3030 
Q 2388 3097 2138 3097 
Q 1578 3097 1268 2742 
Q 959 2388 959 1747 
Q 959 1106 1268 751 
Q 1578 397 2138 397 
Q 2388 397 2633 464 
Q 2878 531 3122 666 
L 3122 134 
Q 2881 22 2623 -34 
Q 2366 -91 2075 -91 
Q 1284 -91 818 406 
Q 353 903 353 1747 
Q 353 2603 823 3093 
Q 1294 3584 2113 3584 
Q 2378 3584 2631 3529 
Q 2884 3475 3122 3366 
z
" transform="scale(0.015625)"/>
       </defs>
       <use xlink:href="#DejaVuSans-53"/>
       <use xlink:href="#DejaVuSans-75" x="63.476562"/>
       <use xlink:href="#DejaVuSans-6d" x="126.855469"/>
       <use xlink:href="#DejaVuSans-6d" x="224.267578"/>
       <use xlink:href="#DejaVuSans-61" x="321.679688"/>
       <use xlink:href="#DejaVuSans-72" x="382.958984"/>
       <use xlink:href="#DejaVuSans-69" x="424.072266"/>
       <use xlink:href="#DejaVuSans-65" x="451.855469"/>
       <use xlink:href="#DejaVuSans-73" x="513.378906"/>
       <use xlink:href="#DejaVuSans-2f" x="565.478516"/>
       <use xlink:href="#DejaVuSans-73" x="599.169922"/>
       <use xlink:href="#DejaVuSans-65" x="651.269531"/>
       <use xlink:href="#DejaVuSans-63" x="712.792969"/>
      </g>
     </g>
    </g>
   </g>
   <g id="matplotlib.axis_2">
    <g id="ytick_1">
     <g id="line2d_5">
      <defs>
       <path id="m509eeb6bd6" d="M 0 0 
L -3.5 0 
" style="stroke: #000000; stroke-width: 0.8"/>
      </defs>
      <g>
       <use xlink:href="#m509eeb6bd6" x="44.57" y="332.12" style="stroke: #000000; stroke-width: 0.8"/>
      </g>
     </g>
     <g id="text_5">
      <!-- 0 -->
      <g transform="translate(31.2075 335.919219) scale(0.1 -0.1)">
       <defs>
        <path id="DejaVuSans-30" d="M 2034 4250 
Q 1547 4250 1301 3770 
Q 1056 3291 1056 2328 
Q 1056 1369 1301 889 
Q 1547 409 2034 409 
Q 2525 409 2770 889 
Q 3016 1369 3016 2328 
Q 3016 3291 2770 3770 
Q 2525 4250 2034 4250 
z
M 2034 4750 
Q 2819 4750 3233 4129 
Q 3647 3509 3647 2328 
Q 3647 1150 3233 529 
Q 2819 -91 2034 -91 
Q 1250 -91 836 529 
Q 422 1150 422 2328 
Q 422 3509 836 4129 
Q 1250 4750 2034 4750 
z
" transform="scale(0.015625)"/>
       </defs>
       <use xlink:href="#DejaVuSans-30"/>
      </g>
     </g>
    </g>
    <g id="ytick_2">
     <g id="line2d_6">
      <g>
       <use xlink:href="#m509eeb6bd6" x="44.57" y="286.782857" style="stroke: #000000; stroke-width: 0.8"/>
      </g>
     </g>
     <g id="text_6">
      <!-- 5 -->
      <g transform="translate(31.2075 290.582076) scale(0.1 -0.1)">
       <defs>
        <path id="DejaVuSans-35" d="M 691 4666 
L 3169 4666 
L 3169 4134 
L 1269 4134 
L 1269 2991 
Q 1406 3038 1543 3061 
Q 1681 3084 1819 3084 
Q 2600 3084 3056 2656 
Q 3513 2228 3513 1497 
Q 3513 744 3044 326 
Q 2575 -91 1722 -91 
Q 1428 -91 1123 -41 
Q 819 9 494 109 
L 494 744 
Q 775 591 1075 516 
Q 1375 441 1709 441 
Q 2250 441 2565 725 
Q 2881 1009 2881 1497 
Q 2881 1984 2565 2268 
Q 2250 2553 1709 2553 
Q 1456 2553 1204 2497 
Q 953 2441 691 2322 
L 691 4666 
z
" transform="scale(0.015625)"/>
       </defs>
       <use xlink:href="#DejaVuSans-35"/>
      </g>
     </g>
    </g>
    <g id="ytick_3">
     <g id="line2d_7">
      <g>
       <use xlink:href="#m509eeb6bd6" x="44.57" y="241.445714" style="stroke: #000000; stroke-width: 0.8"/>
      </g>
     </g>
     <g id="text_7">
      <!-- 10 -->
      <g transform="translate(24.845 245.244933) scale(0.1 -0.1)">
       <defs>
        <path id="DejaVuSans-31" d="M 794 531 
L 1825 531 
L 1825 4091 
L 703 3866 
L 703 4441 
L 1819 4666 
L 2450 4666 
L 2450 531 
L 3481 531 
L 3481 0 
L 794 0 
L 794 531 
z
" transform="scale(0.015625)"/>
       </defs>
       <use xlink:href="#DejaVuSans-31"/>
       <use xlink:href="#DejaVuSans-30" x="63.623047"/>
      </g>
     </g>
    </g>
    <g id="ytick_4">
     <g id="line2d_8">
      <g>
       <use xlink:href="#m509eeb6bd6" x="44.57" y="196.108571" style="stroke: #000000; stroke-width: 0.8"/>
      </g>
     </g>
     <g id="text_8">
      <!-- 15 -->
      <g transform="translate(24.845 199.90779) scale(0.1 -0.1)">
       <use xlink:href="#DejaVuSans-31"/>
       <use xlink:href="#DejaVuSans-35" x="63.623047"/>
      </g>
     </g>
    </g>
    <g id="ytick_5">
     <g id="line2d_9">
      <g>
       <use xlink:href="#m509eeb6bd6" x="44.57" y="150.771429" style="stroke: #000000; stroke-width: 0.8"/>
      </g>
     </g>
     <g id="text_9">
      <!-- 20 -->
      <g transform="translate(24.845 154.570647) scale(0.1 -0.1)">
       <defs>
        <path id="DejaVuSans-32" d="M 1228 531 
L 3431 531 
L 3431 0 
L 469 0 
L 469 531 
Q 828 903 1448 1529 
Q 2069 2156 2228 2338 
Q 2531 2678 2651 2914 
Q 2772 3150 2772 3378 
Q 2772 3750 2511 3984 
Q 2250 4219 1831 4219 
Q 1534 4219 1204 4116 
Q 875 4013 500 3803 
L 500 4441 
Q 881 4594 1212 4672 
Q 1544 4750 1819 4750 
Q 2544 4750 2975 4387 
Q 3406 4025 3406 3419 
Q 3406 3131 3298 2873 
Q 3191 2616 2906 2266 
Q 2828 2175 2409 1742 
Q 1991 1309 1228 531 
z
" transform="scale(0.015625)"/>
       </defs>
       <use xlink:href="#DejaVuSans-32"/>
       <use xlink:href="#DejaVuSans-30" x="63.623047"/>
      </g>
     </g>
    </g>
    <g id="ytick_6">
     <g id="line2d_10">
      <g>
       <use xlink:href="#m509eeb6bd6" x="44.57" y="105.434286" style="stroke: #000000; stroke-width: 0.8"/>
      </g>
     </g>
     <g id="text_10">
      <!-- 25 -->
      <g transform="translate(24.845 109.233504) scale(0.1 -0.1)">
       <use xlink:href="#DejaVuSans-32"/>
       <use xlink:href="#DejaVuSans-35" x="63.623047"/>
      </g>
     </g>
    </g>
    <g id="ytick_7">
     <g id="line2d_11">
      <g>
       <use xlink:href="#m509eeb6bd6" x="44.57" y="60.097143" style="stroke: #000000; stroke-width: 0.8"/>
      </g>
     </g>
     <g id="text_11">
      <!-- 30 -->
      <g transform="translate(24.845 63.896362) scale(0.1 -0.1)">
       <defs>
        <path id="DejaVuSans-33" d="M 2597 2516 
Q 3050 2419 3304 2112 
Q 3559 1806 3559 1356 
Q 3559 666 3084 287 
Q 2609 -91 1734 -91 
Q 1441 -91 1130 -33 
Q 819 25 488 141 
L 488 750 
Q 750 597 1062 519 
Q 1375 441 1716 441 
Q 2309 441 2620 675 
Q 2931 909 2931 1356 
Q 2931 1769 2642 2001 
Q 2353 2234 1838 2234 
L 1294 2234 
L 1294 2753 
L 1863 2753 
Q 2328 2753 2575 2939 
Q 2822 3125 2822 3475 
Q 2822 3834 2567 4026 
Q 2313 4219 1838 4219 
Q 1578 4219 1281 4162 
Q 984 4106 628 3988 
L 628 4550 
Q 988 4650 1302 4700 
Q 1616 4750 1894 4750 
Q 2613 4750 3031 4423 
Q 3450 4097 3450 3541 
Q 3450 3153 3228 2886 
Q 3006 2619 2597 2516 
z
" transform="scale(0.015625)"/>
       </defs>
       <use xlink:href="#DejaVuSans-33"/>
       <use xlink:href="#DejaVuSans-30" x="63.623047"/>
      </g>
     </g>
    </g>
    <g id="ytick_8">
     <g id="line2d_12">
      <g>
       <use xlink:href="#m509eeb6bd6" x="44.57" y="14.76" style="stroke: #000000; stroke-width: 0.8"/>
      </g>
     </g>
     <g id="text_12">
      <!-- 35 -->
      <g transform="translate(24.845 18.559219) scale(0.1 -0.1)">
       <use xlink:href="#DejaVuSans-33"/>
       <use xlink:href="#DejaVuSans-35" x="63.623047"/>
      </g>
     </g>
    </g>
    <g id="text_13">
     <!-- Scores -->
     <g transform="translate(18.765312 190.047031) rotate(-90) scale(0.1 -0.1)">
      <use xlink:href="#DejaVuSans-53"/>
      <use xlink:href="#DejaVuSans-63" x="63.476562"/>
      <use xlink:href="#DejaVuSans-6f" x="118.457031"/>
      <use xlink:href="#DejaVuSans-72" x="179.638672"/>
      <use xlink:href="#DejaVuSans-65" x="218.501953"/>
      <use xlink:href="#DejaVuSans-73" x="280.025391"/>
     </g>
    </g>
   </g>
   <g id="line2d_13">
    <path d="M 535.887392 332.12 
L 535.887392 14.76 
" clip-path="url(#p722c75b004)" style="fill: none; stroke-dasharray: 5.55,2.4; stroke-dashoffset: 0; stroke: #000000; stroke-width: 1.5"/>
   </g>
   <g id="patch_19">
    <path d="M 44.57 332.12 
L 44.57 14.76 
" style="fill: none; stroke: #000000; stroke-width: 0.8; stroke-linejoin: miter; stroke-linecap: square"/>
   </g>
   <g id="patch_20">
    <path d="M 709.2 332.12 
L 709.2 14.76 
" style="fill: none; stroke: #000000; stroke-width: 0.8; stroke-linejoin: miter; stroke-linecap: square"/>
   </g>
   <g id="patch_21">
    <path d="M 44.57 332.12 
L 709.2 332.12 
" style="fill: none; stroke: #000000; stroke-width: 0.8; stroke-linejoin: miter; stroke-linecap: square"/>
   </g>
   <g id="patch_22">
    <path d="M 44.57 14.76 
L 709.2 14.76 
" style="fill: none; stroke: #000000; stroke-width: 0.8; stroke-linejoin: miter; stroke-linecap: square"/>
   </g>
   <g id="legend_1">
    <g id="patch_23">
     <path d="M 620.542188 81.4725 
L 702.2 81.4725 
Q 704.2 81.4725 704.2 79.4725 
L 704.2 21.76 
Q 704.2 19.76 702.2 19.76 
L 620.542188 19.76 
Q 618.542188 19.76 618.542188 21.76 
L 618.542188 79.4725 
Q 618.542188 81.4725 620.542188 81.4725 
z
" style="fill: #ffffff; opacity: 0.8; stroke: #cccccc; stroke-linejoin: miter"/>
    </g>
    <g id="patch_24">
     <path d="M 622.542188 31.358437 
L 642.542188 31.358437 
L 642.542188 24.358437 
L 622.542188 24.358437 
z
" style="fill: url(#h8122e6e1ab)"/>
    </g>
    <g id="text_14">
     <!-- IT5-base -->
     <g transform="translate(650.542188 31.358437) scale(0.1 -0.1)">
      <defs>
       <path id="DejaVuSans-2d" d="M 313 2009 
L 1997 2009 
L 1997 1497 
L 313 1497 
L 313 2009 
z
" transform="scale(0.015625)"/>
       <path id="DejaVuSans-62" d="M 3116 1747 
Q 3116 2381 2855 2742 
Q 2594 3103 2138 3103 
Q 1681 3103 1420 2742 
Q 1159 2381 1159 1747 
Q 1159 1113 1420 752 
Q 1681 391 2138 391 
Q 2594 391 2855 752 
Q 3116 1113 3116 1747 
z
M 1159 2969 
Q 1341 3281 1617 3432 
Q 1894 3584 2278 3584 
Q 2916 3584 3314 3078 
Q 3713 2572 3713 1747 
Q 3713 922 3314 415 
Q 2916 -91 2278 -91 
Q 1894 -91 1617 61 
Q 1341 213 1159 525 
L 1159 0 
L 581 0 
L 581 4863 
L 1159 4863 
L 1159 2969 
z
" transform="scale(0.015625)"/>
      </defs>
      <use xlink:href="#DejaVuSans-49"/>
      <use xlink:href="#DejaVuSans-54" x="29.492188"/>
      <use xlink:href="#DejaVuSans-35" x="90.576172"/>
      <use xlink:href="#DejaVuSans-2d" x="154.199219"/>
      <use xlink:href="#DejaVuSans-62" x="190.283203"/>
      <use xlink:href="#DejaVuSans-61" x="253.759766"/>
      <use xlink:href="#DejaVuSans-73" x="315.039062"/>
      <use xlink:href="#DejaVuSans-65" x="367.138672"/>
     </g>
    </g>
    <g id="patch_25">
     <path d="M 622.542188 46.036563 
L 642.542188 46.036563 
L 642.542188 39.036563 
L 622.542188 39.036563 
z
" style="fill: url(#h0d1ebffa7c)"/>
    </g>
    <g id="text_15">
     <!-- BART-IT -->
     <g transform="translate(650.542188 46.036563) scale(0.1 -0.1)">
      <defs>
       <path id="DejaVuSans-42" d="M 1259 2228 
L 1259 519 
L 2272 519 
Q 2781 519 3026 730 
Q 3272 941 3272 1375 
Q 3272 1813 3026 2020 
Q 2781 2228 2272 2228 
L 1259 2228 
z
M 1259 4147 
L 1259 2741 
L 2194 2741 
Q 2656 2741 2882 2914 
Q 3109 3088 3109 3444 
Q 3109 3797 2882 3972 
Q 2656 4147 2194 4147 
L 1259 4147 
z
M 628 4666 
L 2241 4666 
Q 2963 4666 3353 4366 
Q 3744 4066 3744 3513 
Q 3744 3084 3544 2831 
Q 3344 2578 2956 2516 
Q 3422 2416 3680 2098 
Q 3938 1781 3938 1306 
Q 3938 681 3513 340 
Q 3088 0 2303 0 
L 628 0 
L 628 4666 
z
" transform="scale(0.015625)"/>
       <path id="DejaVuSans-41" d="M 2188 4044 
L 1331 1722 
L 3047 1722 
L 2188 4044 
z
M 1831 4666 
L 2547 4666 
L 4325 0 
L 3669 0 
L 3244 1197 
L 1141 1197 
L 716 0 
L 50 0 
L 1831 4666 
z
" transform="scale(0.015625)"/>
       <path id="DejaVuSans-52" d="M 2841 2188 
Q 3044 2119 3236 1894 
Q 3428 1669 3622 1275 
L 4263 0 
L 3584 0 
L 2988 1197 
Q 2756 1666 2539 1819 
Q 2322 1972 1947 1972 
L 1259 1972 
L 1259 0 
L 628 0 
L 628 4666 
L 2053 4666 
Q 2853 4666 3247 4331 
Q 3641 3997 3641 3322 
Q 3641 2881 3436 2590 
Q 3231 2300 2841 2188 
z
M 1259 4147 
L 1259 2491 
L 2053 2491 
Q 2509 2491 2742 2702 
Q 2975 2913 2975 3322 
Q 2975 3731 2742 3939 
Q 2509 4147 2053 4147 
L 1259 4147 
z
" transform="scale(0.015625)"/>
      </defs>
      <use xlink:href="#DejaVuSans-42"/>
      <use xlink:href="#DejaVuSans-41" x="68.603516"/>
      <use xlink:href="#DejaVuSans-52" x="137.011719"/>
      <use xlink:href="#DejaVuSans-54" x="199.244141"/>
      <use xlink:href="#DejaVuSans-2d" x="251.203125"/>
      <use xlink:href="#DejaVuSans-49" x="287.287109"/>
      <use xlink:href="#DejaVuSans-54" x="316.779297"/>
     </g>
    </g>
    <g id="patch_26">
     <path d="M 622.542188 60.714687 
L 642.542188 60.714687 
L 642.542188 53.714687 
L 622.542188 53.714687 
z
" style="fill: url(#hb267573a9b)"/>
    </g>
    <g id="text_16">
     <!-- mT5-base -->
     <g transform="translate(650.542188 60.714687) scale(0.1 -0.1)">
      <use xlink:href="#DejaVuSans-6d"/>
      <use xlink:href="#DejaVuSans-54" x="97.412109"/>
      <use xlink:href="#DejaVuSans-35" x="158.496094"/>
      <use xlink:href="#DejaVuSans-2d" x="222.119141"/>
      <use xlink:href="#DejaVuSans-62" x="258.203125"/>
      <use xlink:href="#DejaVuSans-61" x="321.679688"/>
      <use xlink:href="#DejaVuSans-73" x="382.958984"/>
      <use xlink:href="#DejaVuSans-65" x="435.058594"/>
     </g>
    </g>
    <g id="patch_27">
     <path d="M 622.542188 75.392812 
L 642.542188 75.392812 
L 642.542188 68.392812 
L 622.542188 68.392812 
z
" style="fill: url(#hf32ccce3f5)"/>
    </g>
    <g id="text_17">
     <!-- mBART -->
     <g transform="translate(650.542188 75.392812) scale(0.1 -0.1)">
      <use xlink:href="#DejaVuSans-6d"/>
      <use xlink:href="#DejaVuSans-42" x="97.412109"/>
      <use xlink:href="#DejaVuSans-41" x="166.015625"/>
      <use xlink:href="#DejaVuSans-52" x="234.423828"/>
      <use xlink:href="#DejaVuSans-54" x="296.65625"/>
     </g>
    </g>
   </g>
  </g>
 </g>
 <defs>
  <clipPath id="p722c75b004">
   <rect x="44.57" y="14.76" width="664.63" height="317.36"/>
  </clipPath>
 </defs>
 <defs>
  <pattern id="h8122e6e1ab" patternUnits="userSpaceOnUse" x="0" y="0" width="72" height="72">
   <rect x="0" y="0" width="73" height="73" fill="#0072b2"/>
   <path d="M -36 36 
L 36 108 
M -30 30 
L 42 102 
M -24 24 
L 48 96 
M -18 18 
L 54 90 
M -12 12 
L 60 84 
M -6 6 
L 66 78 
M 0 0 
L 72 72 
M 6 -6 
L 78 66 
M 12 -12 
L 84 60 
M 18 -18 
L 90 54 
M 24 -24 
L 96 48 
M 30 -30 
L 102 42 
M 36 -36 
L 108 36 
" style="fill: #000000; stroke: #000000; stroke-width: 1.0; stroke-linecap: butt; stroke-linejoin: miter"/>
  </pattern>
  <pattern id="h0d1ebffa7c" patternUnits="userSpaceOnUse" x="0" y="0" width="72" height="72">
   <rect x="0" y="0" width="73" height="73" fill="#009e73"/>
   <path d="M 0 69 
L 72 69 
M 0 63 
L 72 63 
M 0 57 
L 72 57 
M 0 51 
L 72 51 
M 0 45 
L 72 45 
M 0 39 
L 72 39 
M 0 33 
L 72 33 
M 0 27 
L 72 27 
M 0 21 
L 72 21 
M 0 15 
L 72 15 
M 0 9 
L 72 9 
M 0 3 
L 72 3 
" style="fill: #000000; stroke: #000000; stroke-width: 1.0; stroke-linecap: butt; stroke-linejoin: miter"/>
  </pattern>
  <pattern id="hb267573a9b" patternUnits="userSpaceOnUse" x="0" y="0" width="72" height="72">
   <rect x="0" y="0" width="73" height="73" fill="#d55e00"/>
   <path d="M 0 72.6 
C 0.159122 72.6 0.311748 72.53678 0.424264 72.424264 
C 0.53678 72.311748 0.6 72.159122 0.6 72 
C 0.6 71.840878 0.53678 71.688252 0.424264 71.575736 
C 0.311748 71.46322 0.159122 71.4 0 71.4 
C -0.159122 71.4 -0.311748 71.46322 -0.424264 71.575736 
C -0.53678 71.688252 -0.6 71.840878 -0.6 72 
C -0.6 72.159122 -0.53678 72.311748 -0.424264 72.424264 
C -0.311748 72.53678 -0.159122 72.6 0 72.6 
z
M 6 72.6 
C 6.159122 72.6 6.311748 72.53678 6.424264 72.424264 
C 6.53678 72.311748 6.6 72.159122 6.6 72 
C 6.6 71.840878 6.53678 71.688252 6.424264 71.575736 
C 6.311748 71.46322 6.159122 71.4 6 71.4 
C 5.840878 71.4 5.688252 71.46322 5.575736 71.575736 
C 5.46322 71.688252 5.4 71.840878 5.4 72 
C 5.4 72.159122 5.46322 72.311748 5.575736 72.424264 
C 5.688252 72.53678 5.840878 72.6 6 72.6 
z
M 12 72.6 
C 12.159122 72.6 12.311748 72.53678 12.424264 72.424264 
C 12.53678 72.311748 12.6 72.159122 12.6 72 
C 12.6 71.840878 12.53678 71.688252 12.424264 71.575736 
C 12.311748 71.46322 12.159122 71.4 12 71.4 
C 11.840878 71.4 11.688252 71.46322 11.575736 71.575736 
C 11.46322 71.688252 11.4 71.840878 11.4 72 
C 11.4 72.159122 11.46322 72.311748 11.575736 72.424264 
C 11.688252 72.53678 11.840878 72.6 12 72.6 
z
M 18 72.6 
C 18.159122 72.6 18.311748 72.53678 18.424264 72.424264 
C 18.53678 72.311748 18.6 72.159122 18.6 72 
C 18.6 71.840878 18.53678 71.688252 18.424264 71.575736 
C 18.311748 71.46322 18.159122 71.4 18 71.4 
C 17.840878 71.4 17.688252 71.46322 17.575736 71.575736 
C 17.46322 71.688252 17.4 71.840878 17.4 72 
C 17.4 72.159122 17.46322 72.311748 17.575736 72.424264 
C 17.688252 72.53678 17.840878 72.6 18 72.6 
z
M 24 72.6 
C 24.159122 72.6 24.311748 72.53678 24.424264 72.424264 
C 24.53678 72.311748 24.6 72.159122 24.6 72 
C 24.6 71.840878 24.53678 71.688252 24.424264 71.575736 
C 24.311748 71.46322 24.159122 71.4 24 71.4 
C 23.840878 71.4 23.688252 71.46322 23.575736 71.575736 
C 23.46322 71.688252 23.4 71.840878 23.4 72 
C 23.4 72.159122 23.46322 72.311748 23.575736 72.424264 
C 23.688252 72.53678 23.840878 72.6 24 72.6 
z
M 30 72.6 
C 30.159122 72.6 30.311748 72.53678 30.424264 72.424264 
C 30.53678 72.311748 30.6 72.159122 30.6 72 
C 30.6 71.840878 30.53678 71.688252 30.424264 71.575736 
C 30.311748 71.46322 30.159122 71.4 30 71.4 
C 29.840878 71.4 29.688252 71.46322 29.575736 71.575736 
C 29.46322 71.688252 29.4 71.840878 29.4 72 
C 29.4 72.159122 29.46322 72.311748 29.575736 72.424264 
C 29.688252 72.53678 29.840878 72.6 30 72.6 
z
M 36 72.6 
C 36.159122 72.6 36.311748 72.53678 36.424264 72.424264 
C 36.53678 72.311748 36.6 72.159122 36.6 72 
C 36.6 71.840878 36.53678 71.688252 36.424264 71.575736 
C 36.311748 71.46322 36.159122 71.4 36 71.4 
C 35.840878 71.4 35.688252 71.46322 35.575736 71.575736 
C 35.46322 71.688252 35.4 71.840878 35.4 72 
C 35.4 72.159122 35.46322 72.311748 35.575736 72.424264 
C 35.688252 72.53678 35.840878 72.6 36 72.6 
z
M 42 72.6 
C 42.159122 72.6 42.311748 72.53678 42.424264 72.424264 
C 42.53678 72.311748 42.6 72.159122 42.6 72 
C 42.6 71.840878 42.53678 71.688252 42.424264 71.575736 
C 42.311748 71.46322 42.159122 71.4 42 71.4 
C 41.840878 71.4 41.688252 71.46322 41.575736 71.575736 
C 41.46322 71.688252 41.4 71.840878 41.4 72 
C 41.4 72.159122 41.46322 72.311748 41.575736 72.424264 
C 41.688252 72.53678 41.840878 72.6 42 72.6 
z
M 48 72.6 
C 48.159122 72.6 48.311748 72.53678 48.424264 72.424264 
C 48.53678 72.311748 48.6 72.159122 48.6 72 
C 48.6 71.840878 48.53678 71.688252 48.424264 71.575736 
C 48.311748 71.46322 48.159122 71.4 48 71.4 
C 47.840878 71.4 47.688252 71.46322 47.575736 71.575736 
C 47.46322 71.688252 47.4 71.840878 47.4 72 
C 47.4 72.159122 47.46322 72.311748 47.575736 72.424264 
C 47.688252 72.53678 47.840878 72.6 48 72.6 
z
M 54 72.6 
C 54.159122 72.6 54.311748 72.53678 54.424264 72.424264 
C 54.53678 72.311748 54.6 72.159122 54.6 72 
C 54.6 71.840878 54.53678 71.688252 54.424264 71.575736 
C 54.311748 71.46322 54.159122 71.4 54 71.4 
C 53.840878 71.4 53.688252 71.46322 53.575736 71.575736 
C 53.46322 71.688252 53.4 71.840878 53.4 72 
C 53.4 72.159122 53.46322 72.311748 53.575736 72.424264 
C 53.688252 72.53678 53.840878 72.6 54 72.6 
z
M 60 72.6 
C 60.159122 72.6 60.311748 72.53678 60.424264 72.424264 
C 60.53678 72.311748 60.6 72.159122 60.6 72 
C 60.6 71.840878 60.53678 71.688252 60.424264 71.575736 
C 60.311748 71.46322 60.159122 71.4 60 71.4 
C 59.840878 71.4 59.688252 71.46322 59.575736 71.575736 
C 59.46322 71.688252 59.4 71.840878 59.4 72 
C 59.4 72.159122 59.46322 72.311748 59.575736 72.424264 
C 59.688252 72.53678 59.840878 72.6 60 72.6 
z
M 66 72.6 
C 66.159122 72.6 66.311748 72.53678 66.424264 72.424264 
C 66.53678 72.311748 66.6 72.159122 66.6 72 
C 66.6 71.840878 66.53678 71.688252 66.424264 71.575736 
C 66.311748 71.46322 66.159122 71.4 66 71.4 
C 65.840878 71.4 65.688252 71.46322 65.575736 71.575736 
C 65.46322 71.688252 65.4 71.840878 65.4 72 
C 65.4 72.159122 65.46322 72.311748 65.575736 72.424264 
C 65.688252 72.53678 65.840878 72.6 66 72.6 
z
M 72 72.6 
C 72.159122 72.6 72.311748 72.53678 72.424264 72.424264 
C 72.53678 72.311748 72.6 72.159122 72.6 72 
C 72.6 71.840878 72.53678 71.688252 72.424264 71.575736 
C 72.311748 71.46322 72.159122 71.4 72 71.4 
C 71.840878 71.4 71.688252 71.46322 71.575736 71.575736 
C 71.46322 71.688252 71.4 71.840878 71.4 72 
C 71.4 72.159122 71.46322 72.311748 71.575736 72.424264 
C 71.688252 72.53678 71.840878 72.6 72 72.6 
z
M 3 66.6 
C 3.159122 66.6 3.311748 66.53678 3.424264 66.424264 
C 3.53678 66.311748 3.6 66.159122 3.6 66 
C 3.6 65.840878 3.53678 65.688252 3.424264 65.575736 
C 3.311748 65.46322 3.159122 65.4 3 65.4 
C 2.840878 65.4 2.688252 65.46322 2.575736 65.575736 
C 2.46322 65.688252 2.4 65.840878 2.4 66 
C 2.4 66.159122 2.46322 66.311748 2.575736 66.424264 
C 2.688252 66.53678 2.840878 66.6 3 66.6 
z
M 9 66.6 
C 9.159122 66.6 9.311748 66.53678 9.424264 66.424264 
C 9.53678 66.311748 9.6 66.159122 9.6 66 
C 9.6 65.840878 9.53678 65.688252 9.424264 65.575736 
C 9.311748 65.46322 9.159122 65.4 9 65.4 
C 8.840878 65.4 8.688252 65.46322 8.575736 65.575736 
C 8.46322 65.688252 8.4 65.840878 8.4 66 
C 8.4 66.159122 8.46322 66.311748 8.575736 66.424264 
C 8.688252 66.53678 8.840878 66.6 9 66.6 
z
M 15 66.6 
C 15.159122 66.6 15.311748 66.53678 15.424264 66.424264 
C 15.53678 66.311748 15.6 66.159122 15.6 66 
C 15.6 65.840878 15.53678 65.688252 15.424264 65.575736 
C 15.311748 65.46322 15.159122 65.4 15 65.4 
C 14.840878 65.4 14.688252 65.46322 14.575736 65.575736 
C 14.46322 65.688252 14.4 65.840878 14.4 66 
C 14.4 66.159122 14.46322 66.311748 14.575736 66.424264 
C 14.688252 66.53678 14.840878 66.6 15 66.6 
z
M 21 66.6 
C 21.159122 66.6 21.311748 66.53678 21.424264 66.424264 
C 21.53678 66.311748 21.6 66.159122 21.6 66 
C 21.6 65.840878 21.53678 65.688252 21.424264 65.575736 
C 21.311748 65.46322 21.159122 65.4 21 65.4 
C 20.840878 65.4 20.688252 65.46322 20.575736 65.575736 
C 20.46322 65.688252 20.4 65.840878 20.4 66 
C 20.4 66.159122 20.46322 66.311748 20.575736 66.424264 
C 20.688252 66.53678 20.840878 66.6 21 66.6 
z
M 27 66.6 
C 27.159122 66.6 27.311748 66.53678 27.424264 66.424264 
C 27.53678 66.311748 27.6 66.159122 27.6 66 
C 27.6 65.840878 27.53678 65.688252 27.424264 65.575736 
C 27.311748 65.46322 27.159122 65.4 27 65.4 
C 26.840878 65.4 26.688252 65.46322 26.575736 65.575736 
C 26.46322 65.688252 26.4 65.840878 26.4 66 
C 26.4 66.159122 26.46322 66.311748 26.575736 66.424264 
C 26.688252 66.53678 26.840878 66.6 27 66.6 
z
M 33 66.6 
C 33.159122 66.6 33.311748 66.53678 33.424264 66.424264 
C 33.53678 66.311748 33.6 66.159122 33.6 66 
C 33.6 65.840878 33.53678 65.688252 33.424264 65.575736 
C 33.311748 65.46322 33.159122 65.4 33 65.4 
C 32.840878 65.4 32.688252 65.46322 32.575736 65.575736 
C 32.46322 65.688252 32.4 65.840878 32.4 66 
C 32.4 66.159122 32.46322 66.311748 32.575736 66.424264 
C 32.688252 66.53678 32.840878 66.6 33 66.6 
z
M 39 66.6 
C 39.159122 66.6 39.311748 66.53678 39.424264 66.424264 
C 39.53678 66.311748 39.6 66.159122 39.6 66 
C 39.6 65.840878 39.53678 65.688252 39.424264 65.575736 
C 39.311748 65.46322 39.159122 65.4 39 65.4 
C 38.840878 65.4 38.688252 65.46322 38.575736 65.575736 
C 38.46322 65.688252 38.4 65.840878 38.4 66 
C 38.4 66.159122 38.46322 66.311748 38.575736 66.424264 
C 38.688252 66.53678 38.840878 66.6 39 66.6 
z
M 45 66.6 
C 45.159122 66.6 45.311748 66.53678 45.424264 66.424264 
C 45.53678 66.311748 45.6 66.159122 45.6 66 
C 45.6 65.840878 45.53678 65.688252 45.424264 65.575736 
C 45.311748 65.46322 45.159122 65.4 45 65.4 
C 44.840878 65.4 44.688252 65.46322 44.575736 65.575736 
C 44.46322 65.688252 44.4 65.840878 44.4 66 
C 44.4 66.159122 44.46322 66.311748 44.575736 66.424264 
C 44.688252 66.53678 44.840878 66.6 45 66.6 
z
M 51 66.6 
C 51.159122 66.6 51.311748 66.53678 51.424264 66.424264 
C 51.53678 66.311748 51.6 66.159122 51.6 66 
C 51.6 65.840878 51.53678 65.688252 51.424264 65.575736 
C 51.311748 65.46322 51.159122 65.4 51 65.4 
C 50.840878 65.4 50.688252 65.46322 50.575736 65.575736 
C 50.46322 65.688252 50.4 65.840878 50.4 66 
C 50.4 66.159122 50.46322 66.311748 50.575736 66.424264 
C 50.688252 66.53678 50.840878 66.6 51 66.6 
z
M 57 66.6 
C 57.159122 66.6 57.311748 66.53678 57.424264 66.424264 
C 57.53678 66.311748 57.6 66.159122 57.6 66 
C 57.6 65.840878 57.53678 65.688252 57.424264 65.575736 
C 57.311748 65.46322 57.159122 65.4 57 65.4 
C 56.840878 65.4 56.688252 65.46322 56.575736 65.575736 
C 56.46322 65.688252 56.4 65.840878 56.4 66 
C 56.4 66.159122 56.46322 66.311748 56.575736 66.424264 
C 56.688252 66.53678 56.840878 66.6 57 66.6 
z
M 63 66.6 
C 63.159122 66.6 63.311748 66.53678 63.424264 66.424264 
C 63.53678 66.311748 63.6 66.159122 63.6 66 
C 63.6 65.840878 63.53678 65.688252 63.424264 65.575736 
C 63.311748 65.46322 63.159122 65.4 63 65.4 
C 62.840878 65.4 62.688252 65.46322 62.575736 65.575736 
C 62.46322 65.688252 62.4 65.840878 62.4 66 
C 62.4 66.159122 62.46322 66.311748 62.575736 66.424264 
C 62.688252 66.53678 62.840878 66.6 63 66.6 
z
M 69 66.6 
C 69.159122 66.6 69.311748 66.53678 69.424264 66.424264 
C 69.53678 66.311748 69.6 66.159122 69.6 66 
C 69.6 65.840878 69.53678 65.688252 69.424264 65.575736 
C 69.311748 65.46322 69.159122 65.4 69 65.4 
C 68.840878 65.4 68.688252 65.46322 68.575736 65.575736 
C 68.46322 65.688252 68.4 65.840878 68.4 66 
C 68.4 66.159122 68.46322 66.311748 68.575736 66.424264 
C 68.688252 66.53678 68.840878 66.6 69 66.6 
z
M 0 60.6 
C 0.159122 60.6 0.311748 60.53678 0.424264 60.424264 
C 0.53678 60.311748 0.6 60.159122 0.6 60 
C 0.6 59.840878 0.53678 59.688252 0.424264 59.575736 
C 0.311748 59.46322 0.159122 59.4 0 59.4 
C -0.159122 59.4 -0.311748 59.46322 -0.424264 59.575736 
C -0.53678 59.688252 -0.6 59.840878 -0.6 60 
C -0.6 60.159122 -0.53678 60.311748 -0.424264 60.424264 
C -0.311748 60.53678 -0.159122 60.6 0 60.6 
z
M 6 60.6 
C 6.159122 60.6 6.311748 60.53678 6.424264 60.424264 
C 6.53678 60.311748 6.6 60.159122 6.6 60 
C 6.6 59.840878 6.53678 59.688252 6.424264 59.575736 
C 6.311748 59.46322 6.159122 59.4 6 59.4 
C 5.840878 59.4 5.688252 59.46322 5.575736 59.575736 
C 5.46322 59.688252 5.4 59.840878 5.4 60 
C 5.4 60.159122 5.46322 60.311748 5.575736 60.424264 
C 5.688252 60.53678 5.840878 60.6 6 60.6 
z
M 12 60.6 
C 12.159122 60.6 12.311748 60.53678 12.424264 60.424264 
C 12.53678 60.311748 12.6 60.159122 12.6 60 
C 12.6 59.840878 12.53678 59.688252 12.424264 59.575736 
C 12.311748 59.46322 12.159122 59.4 12 59.4 
C 11.840878 59.4 11.688252 59.46322 11.575736 59.575736 
C 11.46322 59.688252 11.4 59.840878 11.4 60 
C 11.4 60.159122 11.46322 60.311748 11.575736 60.424264 
C 11.688252 60.53678 11.840878 60.6 12 60.6 
z
M 18 60.6 
C 18.159122 60.6 18.311748 60.53678 18.424264 60.424264 
C 18.53678 60.311748 18.6 60.159122 18.6 60 
C 18.6 59.840878 18.53678 59.688252 18.424264 59.575736 
C 18.311748 59.46322 18.159122 59.4 18 59.4 
C 17.840878 59.4 17.688252 59.46322 17.575736 59.575736 
C 17.46322 59.688252 17.4 59.840878 17.4 60 
C 17.4 60.159122 17.46322 60.311748 17.575736 60.424264 
C 17.688252 60.53678 17.840878 60.6 18 60.6 
z
M 24 60.6 
C 24.159122 60.6 24.311748 60.53678 24.424264 60.424264 
C 24.53678 60.311748 24.6 60.159122 24.6 60 
C 24.6 59.840878 24.53678 59.688252 24.424264 59.575736 
C 24.311748 59.46322 24.159122 59.4 24 59.4 
C 23.840878 59.4 23.688252 59.46322 23.575736 59.575736 
C 23.46322 59.688252 23.4 59.840878 23.4 60 
C 23.4 60.159122 23.46322 60.311748 23.575736 60.424264 
C 23.688252 60.53678 23.840878 60.6 24 60.6 
z
M 30 60.6 
C 30.159122 60.6 30.311748 60.53678 30.424264 60.424264 
C 30.53678 60.311748 30.6 60.159122 30.6 60 
C 30.6 59.840878 30.53678 59.688252 30.424264 59.575736 
C 30.311748 59.46322 30.159122 59.4 30 59.4 
C 29.840878 59.4 29.688252 59.46322 29.575736 59.575736 
C 29.46322 59.688252 29.4 59.840878 29.4 60 
C 29.4 60.159122 29.46322 60.311748 29.575736 60.424264 
C 29.688252 60.53678 29.840878 60.6 30 60.6 
z
M 36 60.6 
C 36.159122 60.6 36.311748 60.53678 36.424264 60.424264 
C 36.53678 60.311748 36.6 60.159122 36.6 60 
C 36.6 59.840878 36.53678 59.688252 36.424264 59.575736 
C 36.311748 59.46322 36.159122 59.4 36 59.4 
C 35.840878 59.4 35.688252 59.46322 35.575736 59.575736 
C 35.46322 59.688252 35.4 59.840878 35.4 60 
C 35.4 60.159122 35.46322 60.311748 35.575736 60.424264 
C 35.688252 60.53678 35.840878 60.6 36 60.6 
z
M 42 60.6 
C 42.159122 60.6 42.311748 60.53678 42.424264 60.424264 
C 42.53678 60.311748 42.6 60.159122 42.6 60 
C 42.6 59.840878 42.53678 59.688252 42.424264 59.575736 
C 42.311748 59.46322 42.159122 59.4 42 59.4 
C 41.840878 59.4 41.688252 59.46322 41.575736 59.575736 
C 41.46322 59.688252 41.4 59.840878 41.4 60 
C 41.4 60.159122 41.46322 60.311748 41.575736 60.424264 
C 41.688252 60.53678 41.840878 60.6 42 60.6 
z
M 48 60.6 
C 48.159122 60.6 48.311748 60.53678 48.424264 60.424264 
C 48.53678 60.311748 48.6 60.159122 48.6 60 
C 48.6 59.840878 48.53678 59.688252 48.424264 59.575736 
C 48.311748 59.46322 48.159122 59.4 48 59.4 
C 47.840878 59.4 47.688252 59.46322 47.575736 59.575736 
C 47.46322 59.688252 47.4 59.840878 47.4 60 
C 47.4 60.159122 47.46322 60.311748 47.575736 60.424264 
C 47.688252 60.53678 47.840878 60.6 48 60.6 
z
M 54 60.6 
C 54.159122 60.6 54.311748 60.53678 54.424264 60.424264 
C 54.53678 60.311748 54.6 60.159122 54.6 60 
C 54.6 59.840878 54.53678 59.688252 54.424264 59.575736 
C 54.311748 59.46322 54.159122 59.4 54 59.4 
C 53.840878 59.4 53.688252 59.46322 53.575736 59.575736 
C 53.46322 59.688252 53.4 59.840878 53.4 60 
C 53.4 60.159122 53.46322 60.311748 53.575736 60.424264 
C 53.688252 60.53678 53.840878 60.6 54 60.6 
z
M 60 60.6 
C 60.159122 60.6 60.311748 60.53678 60.424264 60.424264 
C 60.53678 60.311748 60.6 60.159122 60.6 60 
C 60.6 59.840878 60.53678 59.688252 60.424264 59.575736 
C 60.311748 59.46322 60.159122 59.4 60 59.4 
C 59.840878 59.4 59.688252 59.46322 59.575736 59.575736 
C 59.46322 59.688252 59.4 59.840878 59.4 60 
C 59.4 60.159122 59.46322 60.311748 59.575736 60.424264 
C 59.688252 60.53678 59.840878 60.6 60 60.6 
z
M 66 60.6 
C 66.159122 60.6 66.311748 60.53678 66.424264 60.424264 
C 66.53678 60.311748 66.6 60.159122 66.6 60 
C 66.6 59.840878 66.53678 59.688252 66.424264 59.575736 
C 66.311748 59.46322 66.159122 59.4 66 59.4 
C 65.840878 59.4 65.688252 59.46322 65.575736 59.575736 
C 65.46322 59.688252 65.4 59.840878 65.4 60 
C 65.4 60.159122 65.46322 60.311748 65.575736 60.424264 
C 65.688252 60.53678 65.840878 60.6 66 60.6 
z
M 72 60.6 
C 72.159122 60.6 72.311748 60.53678 72.424264 60.424264 
C 72.53678 60.311748 72.6 60.159122 72.6 60 
C 72.6 59.840878 72.53678 59.688252 72.424264 59.575736 
C 72.311748 59.46322 72.159122 59.4 72 59.4 
C 71.840878 59.4 71.688252 59.46322 71.575736 59.575736 
C 71.46322 59.688252 71.4 59.840878 71.4 60 
C 71.4 60.159122 71.46322 60.311748 71.575736 60.424264 
C 71.688252 60.53678 71.840878 60.6 72 60.6 
z
M 3 54.6 
C 3.159122 54.6 3.311748 54.53678 3.424264 54.424264 
C 3.53678 54.311748 3.6 54.159122 3.6 54 
C 3.6 53.840878 3.53678 53.688252 3.424264 53.575736 
C 3.311748 53.46322 3.159122 53.4 3 53.4 
C 2.840878 53.4 2.688252 53.46322 2.575736 53.575736 
C 2.46322 53.688252 2.4 53.840878 2.4 54 
C 2.4 54.159122 2.46322 54.311748 2.575736 54.424264 
C 2.688252 54.53678 2.840878 54.6 3 54.6 
z
M 9 54.6 
C 9.159122 54.6 9.311748 54.53678 9.424264 54.424264 
C 9.53678 54.311748 9.6 54.159122 9.6 54 
C 9.6 53.840878 9.53678 53.688252 9.424264 53.575736 
C 9.311748 53.46322 9.159122 53.4 9 53.4 
C 8.840878 53.4 8.688252 53.46322 8.575736 53.575736 
C 8.46322 53.688252 8.4 53.840878 8.4 54 
C 8.4 54.159122 8.46322 54.311748 8.575736 54.424264 
C 8.688252 54.53678 8.840878 54.6 9 54.6 
z
M 15 54.6 
C 15.159122 54.6 15.311748 54.53678 15.424264 54.424264 
C 15.53678 54.311748 15.6 54.159122 15.6 54 
C 15.6 53.840878 15.53678 53.688252 15.424264 53.575736 
C 15.311748 53.46322 15.159122 53.4 15 53.4 
C 14.840878 53.4 14.688252 53.46322 14.575736 53.575736 
C 14.46322 53.688252 14.4 53.840878 14.4 54 
C 14.4 54.159122 14.46322 54.311748 14.575736 54.424264 
C 14.688252 54.53678 14.840878 54.6 15 54.6 
z
M 21 54.6 
C 21.159122 54.6 21.311748 54.53678 21.424264 54.424264 
C 21.53678 54.311748 21.6 54.159122 21.6 54 
C 21.6 53.840878 21.53678 53.688252 21.424264 53.575736 
C 21.311748 53.46322 21.159122 53.4 21 53.4 
C 20.840878 53.4 20.688252 53.46322 20.575736 53.575736 
C 20.46322 53.688252 20.4 53.840878 20.4 54 
C 20.4 54.159122 20.46322 54.311748 20.575736 54.424264 
C 20.688252 54.53678 20.840878 54.6 21 54.6 
z
M 27 54.6 
C 27.159122 54.6 27.311748 54.53678 27.424264 54.424264 
C 27.53678 54.311748 27.6 54.159122 27.6 54 
C 27.6 53.840878 27.53678 53.688252 27.424264 53.575736 
C 27.311748 53.46322 27.159122 53.4 27 53.4 
C 26.840878 53.4 26.688252 53.46322 26.575736 53.575736 
C 26.46322 53.688252 26.4 53.840878 26.4 54 
C 26.4 54.159122 26.46322 54.311748 26.575736 54.424264 
C 26.688252 54.53678 26.840878 54.6 27 54.6 
z
M 33 54.6 
C 33.159122 54.6 33.311748 54.53678 33.424264 54.424264 
C 33.53678 54.311748 33.6 54.159122 33.6 54 
C 33.6 53.840878 33.53678 53.688252 33.424264 53.575736 
C 33.311748 53.46322 33.159122 53.4 33 53.4 
C 32.840878 53.4 32.688252 53.46322 32.575736 53.575736 
C 32.46322 53.688252 32.4 53.840878 32.4 54 
C 32.4 54.159122 32.46322 54.311748 32.575736 54.424264 
C 32.688252 54.53678 32.840878 54.6 33 54.6 
z
M 39 54.6 
C 39.159122 54.6 39.311748 54.53678 39.424264 54.424264 
C 39.53678 54.311748 39.6 54.159122 39.6 54 
C 39.6 53.840878 39.53678 53.688252 39.424264 53.575736 
C 39.311748 53.46322 39.159122 53.4 39 53.4 
C 38.840878 53.4 38.688252 53.46322 38.575736 53.575736 
C 38.46322 53.688252 38.4 53.840878 38.4 54 
C 38.4 54.159122 38.46322 54.311748 38.575736 54.424264 
C 38.688252 54.53678 38.840878 54.6 39 54.6 
z
M 45 54.6 
C 45.159122 54.6 45.311748 54.53678 45.424264 54.424264 
C 45.53678 54.311748 45.6 54.159122 45.6 54 
C 45.6 53.840878 45.53678 53.688252 45.424264 53.575736 
C 45.311748 53.46322 45.159122 53.4 45 53.4 
C 44.840878 53.4 44.688252 53.46322 44.575736 53.575736 
C 44.46322 53.688252 44.4 53.840878 44.4 54 
C 44.4 54.159122 44.46322 54.311748 44.575736 54.424264 
C 44.688252 54.53678 44.840878 54.6 45 54.6 
z
M 51 54.6 
C 51.159122 54.6 51.311748 54.53678 51.424264 54.424264 
C 51.53678 54.311748 51.6 54.159122 51.6 54 
C 51.6 53.840878 51.53678 53.688252 51.424264 53.575736 
C 51.311748 53.46322 51.159122 53.4 51 53.4 
C 50.840878 53.4 50.688252 53.46322 50.575736 53.575736 
C 50.46322 53.688252 50.4 53.840878 50.4 54 
C 50.4 54.159122 50.46322 54.311748 50.575736 54.424264 
C 50.688252 54.53678 50.840878 54.6 51 54.6 
z
M 57 54.6 
C 57.159122 54.6 57.311748 54.53678 57.424264 54.424264 
C 57.53678 54.311748 57.6 54.159122 57.6 54 
C 57.6 53.840878 57.53678 53.688252 57.424264 53.575736 
C 57.311748 53.46322 57.159122 53.4 57 53.4 
C 56.840878 53.4 56.688252 53.46322 56.575736 53.575736 
C 56.46322 53.688252 56.4 53.840878 56.4 54 
C 56.4 54.159122 56.46322 54.311748 56.575736 54.424264 
C 56.688252 54.53678 56.840878 54.6 57 54.6 
z
M 63 54.6 
C 63.159122 54.6 63.311748 54.53678 63.424264 54.424264 
C 63.53678 54.311748 63.6 54.159122 63.6 54 
C 63.6 53.840878 63.53678 53.688252 63.424264 53.575736 
C 63.311748 53.46322 63.159122 53.4 63 53.4 
C 62.840878 53.4 62.688252 53.46322 62.575736 53.575736 
C 62.46322 53.688252 62.4 53.840878 62.4 54 
C 62.4 54.159122 62.46322 54.311748 62.575736 54.424264 
C 62.688252 54.53678 62.840878 54.6 63 54.6 
z
M 69 54.6 
C 69.159122 54.6 69.311748 54.53678 69.424264 54.424264 
C 69.53678 54.311748 69.6 54.159122 69.6 54 
C 69.6 53.840878 69.53678 53.688252 69.424264 53.575736 
C 69.311748 53.46322 69.159122 53.4 69 53.4 
C 68.840878 53.4 68.688252 53.46322 68.575736 53.575736 
C 68.46322 53.688252 68.4 53.840878 68.4 54 
C 68.4 54.159122 68.46322 54.311748 68.575736 54.424264 
C 68.688252 54.53678 68.840878 54.6 69 54.6 
z
M 0 48.6 
C 0.159122 48.6 0.311748 48.53678 0.424264 48.424264 
C 0.53678 48.311748 0.6 48.159122 0.6 48 
C 0.6 47.840878 0.53678 47.688252 0.424264 47.575736 
C 0.311748 47.46322 0.159122 47.4 0 47.4 
C -0.159122 47.4 -0.311748 47.46322 -0.424264 47.575736 
C -0.53678 47.688252 -0.6 47.840878 -0.6 48 
C -0.6 48.159122 -0.53678 48.311748 -0.424264 48.424264 
C -0.311748 48.53678 -0.159122 48.6 0 48.6 
z
M 6 48.6 
C 6.159122 48.6 6.311748 48.53678 6.424264 48.424264 
C 6.53678 48.311748 6.6 48.159122 6.6 48 
C 6.6 47.840878 6.53678 47.688252 6.424264 47.575736 
C 6.311748 47.46322 6.159122 47.4 6 47.4 
C 5.840878 47.4 5.688252 47.46322 5.575736 47.575736 
C 5.46322 47.688252 5.4 47.840878 5.4 48 
C 5.4 48.159122 5.46322 48.311748 5.575736 48.424264 
C 5.688252 48.53678 5.840878 48.6 6 48.6 
z
M 12 48.6 
C 12.159122 48.6 12.311748 48.53678 12.424264 48.424264 
C 12.53678 48.311748 12.6 48.159122 12.6 48 
C 12.6 47.840878 12.53678 47.688252 12.424264 47.575736 
C 12.311748 47.46322 12.159122 47.4 12 47.4 
C 11.840878 47.4 11.688252 47.46322 11.575736 47.575736 
C 11.46322 47.688252 11.4 47.840878 11.4 48 
C 11.4 48.159122 11.46322 48.311748 11.575736 48.424264 
C 11.688252 48.53678 11.840878 48.6 12 48.6 
z
M 18 48.6 
C 18.159122 48.6 18.311748 48.53678 18.424264 48.424264 
C 18.53678 48.311748 18.6 48.159122 18.6 48 
C 18.6 47.840878 18.53678 47.688252 18.424264 47.575736 
C 18.311748 47.46322 18.159122 47.4 18 47.4 
C 17.840878 47.4 17.688252 47.46322 17.575736 47.575736 
C 17.46322 47.688252 17.4 47.840878 17.4 48 
C 17.4 48.159122 17.46322 48.311748 17.575736 48.424264 
C 17.688252 48.53678 17.840878 48.6 18 48.6 
z
M 24 48.6 
C 24.159122 48.6 24.311748 48.53678 24.424264 48.424264 
C 24.53678 48.311748 24.6 48.159122 24.6 48 
C 24.6 47.840878 24.53678 47.688252 24.424264 47.575736 
C 24.311748 47.46322 24.159122 47.4 24 47.4 
C 23.840878 47.4 23.688252 47.46322 23.575736 47.575736 
C 23.46322 47.688252 23.4 47.840878 23.4 48 
C 23.4 48.159122 23.46322 48.311748 23.575736 48.424264 
C 23.688252 48.53678 23.840878 48.6 24 48.6 
z
M 30 48.6 
C 30.159122 48.6 30.311748 48.53678 30.424264 48.424264 
C 30.53678 48.311748 30.6 48.159122 30.6 48 
C 30.6 47.840878 30.53678 47.688252 30.424264 47.575736 
C 30.311748 47.46322 30.159122 47.4 30 47.4 
C 29.840878 47.4 29.688252 47.46322 29.575736 47.575736 
C 29.46322 47.688252 29.4 47.840878 29.4 48 
C 29.4 48.159122 29.46322 48.311748 29.575736 48.424264 
C 29.688252 48.53678 29.840878 48.6 30 48.6 
z
M 36 48.6 
C 36.159122 48.6 36.311748 48.53678 36.424264 48.424264 
C 36.53678 48.311748 36.6 48.159122 36.6 48 
C 36.6 47.840878 36.53678 47.688252 36.424264 47.575736 
C 36.311748 47.46322 36.159122 47.4 36 47.4 
C 35.840878 47.4 35.688252 47.46322 35.575736 47.575736 
C 35.46322 47.688252 35.4 47.840878 35.4 48 
C 35.4 48.159122 35.46322 48.311748 35.575736 48.424264 
C 35.688252 48.53678 35.840878 48.6 36 48.6 
z
M 42 48.6 
C 42.159122 48.6 42.311748 48.53678 42.424264 48.424264 
C 42.53678 48.311748 42.6 48.159122 42.6 48 
C 42.6 47.840878 42.53678 47.688252 42.424264 47.575736 
C 42.311748 47.46322 42.159122 47.4 42 47.4 
C 41.840878 47.4 41.688252 47.46322 41.575736 47.575736 
C 41.46322 47.688252 41.4 47.840878 41.4 48 
C 41.4 48.159122 41.46322 48.311748 41.575736 48.424264 
C 41.688252 48.53678 41.840878 48.6 42 48.6 
z
M 48 48.6 
C 48.159122 48.6 48.311748 48.53678 48.424264 48.424264 
C 48.53678 48.311748 48.6 48.159122 48.6 48 
C 48.6 47.840878 48.53678 47.688252 48.424264 47.575736 
C 48.311748 47.46322 48.159122 47.4 48 47.4 
C 47.840878 47.4 47.688252 47.46322 47.575736 47.575736 
C 47.46322 47.688252 47.4 47.840878 47.4 48 
C 47.4 48.159122 47.46322 48.311748 47.575736 48.424264 
C 47.688252 48.53678 47.840878 48.6 48 48.6 
z
M 54 48.6 
C 54.159122 48.6 54.311748 48.53678 54.424264 48.424264 
C 54.53678 48.311748 54.6 48.159122 54.6 48 
C 54.6 47.840878 54.53678 47.688252 54.424264 47.575736 
C 54.311748 47.46322 54.159122 47.4 54 47.4 
C 53.840878 47.4 53.688252 47.46322 53.575736 47.575736 
C 53.46322 47.688252 53.4 47.840878 53.4 48 
C 53.4 48.159122 53.46322 48.311748 53.575736 48.424264 
C 53.688252 48.53678 53.840878 48.6 54 48.6 
z
M 60 48.6 
C 60.159122 48.6 60.311748 48.53678 60.424264 48.424264 
C 60.53678 48.311748 60.6 48.159122 60.6 48 
C 60.6 47.840878 60.53678 47.688252 60.424264 47.575736 
C 60.311748 47.46322 60.159122 47.4 60 47.4 
C 59.840878 47.4 59.688252 47.46322 59.575736 47.575736 
C 59.46322 47.688252 59.4 47.840878 59.4 48 
C 59.4 48.159122 59.46322 48.311748 59.575736 48.424264 
C 59.688252 48.53678 59.840878 48.6 60 48.6 
z
M 66 48.6 
C 66.159122 48.6 66.311748 48.53678 66.424264 48.424264 
C 66.53678 48.311748 66.6 48.159122 66.6 48 
C 66.6 47.840878 66.53678 47.688252 66.424264 47.575736 
C 66.311748 47.46322 66.159122 47.4 66 47.4 
C 65.840878 47.4 65.688252 47.46322 65.575736 47.575736 
C 65.46322 47.688252 65.4 47.840878 65.4 48 
C 65.4 48.159122 65.46322 48.311748 65.575736 48.424264 
C 65.688252 48.53678 65.840878 48.6 66 48.6 
z
M 72 48.6 
C 72.159122 48.6 72.311748 48.53678 72.424264 48.424264 
C 72.53678 48.311748 72.6 48.159122 72.6 48 
C 72.6 47.840878 72.53678 47.688252 72.424264 47.575736 
C 72.311748 47.46322 72.159122 47.4 72 47.4 
C 71.840878 47.4 71.688252 47.46322 71.575736 47.575736 
C 71.46322 47.688252 71.4 47.840878 71.4 48 
C 71.4 48.159122 71.46322 48.311748 71.575736 48.424264 
C 71.688252 48.53678 71.840878 48.6 72 48.6 
z
M 3 42.6 
C 3.159122 42.6 3.311748 42.53678 3.424264 42.424264 
C 3.53678 42.311748 3.6 42.159122 3.6 42 
C 3.6 41.840878 3.53678 41.688252 3.424264 41.575736 
C 3.311748 41.46322 3.159122 41.4 3 41.4 
C 2.840878 41.4 2.688252 41.46322 2.575736 41.575736 
C 2.46322 41.688252 2.4 41.840878 2.4 42 
C 2.4 42.159122 2.46322 42.311748 2.575736 42.424264 
C 2.688252 42.53678 2.840878 42.6 3 42.6 
z
M 9 42.6 
C 9.159122 42.6 9.311748 42.53678 9.424264 42.424264 
C 9.53678 42.311748 9.6 42.159122 9.6 42 
C 9.6 41.840878 9.53678 41.688252 9.424264 41.575736 
C 9.311748 41.46322 9.159122 41.4 9 41.4 
C 8.840878 41.4 8.688252 41.46322 8.575736 41.575736 
C 8.46322 41.688252 8.4 41.840878 8.4 42 
C 8.4 42.159122 8.46322 42.311748 8.575736 42.424264 
C 8.688252 42.53678 8.840878 42.6 9 42.6 
z
M 15 42.6 
C 15.159122 42.6 15.311748 42.53678 15.424264 42.424264 
C 15.53678 42.311748 15.6 42.159122 15.6 42 
C 15.6 41.840878 15.53678 41.688252 15.424264 41.575736 
C 15.311748 41.46322 15.159122 41.4 15 41.4 
C 14.840878 41.4 14.688252 41.46322 14.575736 41.575736 
C 14.46322 41.688252 14.4 41.840878 14.4 42 
C 14.4 42.159122 14.46322 42.311748 14.575736 42.424264 
C 14.688252 42.53678 14.840878 42.6 15 42.6 
z
M 21 42.6 
C 21.159122 42.6 21.311748 42.53678 21.424264 42.424264 
C 21.53678 42.311748 21.6 42.159122 21.6 42 
C 21.6 41.840878 21.53678 41.688252 21.424264 41.575736 
C 21.311748 41.46322 21.159122 41.4 21 41.4 
C 20.840878 41.4 20.688252 41.46322 20.575736 41.575736 
C 20.46322 41.688252 20.4 41.840878 20.4 42 
C 20.4 42.159122 20.46322 42.311748 20.575736 42.424264 
C 20.688252 42.53678 20.840878 42.6 21 42.6 
z
M 27 42.6 
C 27.159122 42.6 27.311748 42.53678 27.424264 42.424264 
C 27.53678 42.311748 27.6 42.159122 27.6 42 
C 27.6 41.840878 27.53678 41.688252 27.424264 41.575736 
C 27.311748 41.46322 27.159122 41.4 27 41.4 
C 26.840878 41.4 26.688252 41.46322 26.575736 41.575736 
C 26.46322 41.688252 26.4 41.840878 26.4 42 
C 26.4 42.159122 26.46322 42.311748 26.575736 42.424264 
C 26.688252 42.53678 26.840878 42.6 27 42.6 
z
M 33 42.6 
C 33.159122 42.6 33.311748 42.53678 33.424264 42.424264 
C 33.53678 42.311748 33.6 42.159122 33.6 42 
C 33.6 41.840878 33.53678 41.688252 33.424264 41.575736 
C 33.311748 41.46322 33.159122 41.4 33 41.4 
C 32.840878 41.4 32.688252 41.46322 32.575736 41.575736 
C 32.46322 41.688252 32.4 41.840878 32.4 42 
C 32.4 42.159122 32.46322 42.311748 32.575736 42.424264 
C 32.688252 42.53678 32.840878 42.6 33 42.6 
z
M 39 42.6 
C 39.159122 42.6 39.311748 42.53678 39.424264 42.424264 
C 39.53678 42.311748 39.6 42.159122 39.6 42 
C 39.6 41.840878 39.53678 41.688252 39.424264 41.575736 
C 39.311748 41.46322 39.159122 41.4 39 41.4 
C 38.840878 41.4 38.688252 41.46322 38.575736 41.575736 
C 38.46322 41.688252 38.4 41.840878 38.4 42 
C 38.4 42.159122 38.46322 42.311748 38.575736 42.424264 
C 38.688252 42.53678 38.840878 42.6 39 42.6 
z
M 45 42.6 
C 45.159122 42.6 45.311748 42.53678 45.424264 42.424264 
C 45.53678 42.311748 45.6 42.159122 45.6 42 
C 45.6 41.840878 45.53678 41.688252 45.424264 41.575736 
C 45.311748 41.46322 45.159122 41.4 45 41.4 
C 44.840878 41.4 44.688252 41.46322 44.575736 41.575736 
C 44.46322 41.688252 44.4 41.840878 44.4 42 
C 44.4 42.159122 44.46322 42.311748 44.575736 42.424264 
C 44.688252 42.53678 44.840878 42.6 45 42.6 
z
M 51 42.6 
C 51.159122 42.6 51.311748 42.53678 51.424264 42.424264 
C 51.53678 42.311748 51.6 42.159122 51.6 42 
C 51.6 41.840878 51.53678 41.688252 51.424264 41.575736 
C 51.311748 41.46322 51.159122 41.4 51 41.4 
C 50.840878 41.4 50.688252 41.46322 50.575736 41.575736 
C 50.46322 41.688252 50.4 41.840878 50.4 42 
C 50.4 42.159122 50.46322 42.311748 50.575736 42.424264 
C 50.688252 42.53678 50.840878 42.6 51 42.6 
z
M 57 42.6 
C 57.159122 42.6 57.311748 42.53678 57.424264 42.424264 
C 57.53678 42.311748 57.6 42.159122 57.6 42 
C 57.6 41.840878 57.53678 41.688252 57.424264 41.575736 
C 57.311748 41.46322 57.159122 41.4 57 41.4 
C 56.840878 41.4 56.688252 41.46322 56.575736 41.575736 
C 56.46322 41.688252 56.4 41.840878 56.4 42 
C 56.4 42.159122 56.46322 42.311748 56.575736 42.424264 
C 56.688252 42.53678 56.840878 42.6 57 42.6 
z
M 63 42.6 
C 63.159122 42.6 63.311748 42.53678 63.424264 42.424264 
C 63.53678 42.311748 63.6 42.159122 63.6 42 
C 63.6 41.840878 63.53678 41.688252 63.424264 41.575736 
C 63.311748 41.46322 63.159122 41.4 63 41.4 
C 62.840878 41.4 62.688252 41.46322 62.575736 41.575736 
C 62.46322 41.688252 62.4 41.840878 62.4 42 
C 62.4 42.159122 62.46322 42.311748 62.575736 42.424264 
C 62.688252 42.53678 62.840878 42.6 63 42.6 
z
M 69 42.6 
C 69.159122 42.6 69.311748 42.53678 69.424264 42.424264 
C 69.53678 42.311748 69.6 42.159122 69.6 42 
C 69.6 41.840878 69.53678 41.688252 69.424264 41.575736 
C 69.311748 41.46322 69.159122 41.4 69 41.4 
C 68.840878 41.4 68.688252 41.46322 68.575736 41.575736 
C 68.46322 41.688252 68.4 41.840878 68.4 42 
C 68.4 42.159122 68.46322 42.311748 68.575736 42.424264 
C 68.688252 42.53678 68.840878 42.6 69 42.6 
z
M 0 36.6 
C 0.159122 36.6 0.311748 36.53678 0.424264 36.424264 
C 0.53678 36.311748 0.6 36.159122 0.6 36 
C 0.6 35.840878 0.53678 35.688252 0.424264 35.575736 
C 0.311748 35.46322 0.159122 35.4 0 35.4 
C -0.159122 35.4 -0.311748 35.46322 -0.424264 35.575736 
C -0.53678 35.688252 -0.6 35.840878 -0.6 36 
C -0.6 36.159122 -0.53678 36.311748 -0.424264 36.424264 
C -0.311748 36.53678 -0.159122 36.6 0 36.6 
z
M 6 36.6 
C 6.159122 36.6 6.311748 36.53678 6.424264 36.424264 
C 6.53678 36.311748 6.6 36.159122 6.6 36 
C 6.6 35.840878 6.53678 35.688252 6.424264 35.575736 
C 6.311748 35.46322 6.159122 35.4 6 35.4 
C 5.840878 35.4 5.688252 35.46322 5.575736 35.575736 
C 5.46322 35.688252 5.4 35.840878 5.4 36 
C 5.4 36.159122 5.46322 36.311748 5.575736 36.424264 
C 5.688252 36.53678 5.840878 36.6 6 36.6 
z
M 12 36.6 
C 12.159122 36.6 12.311748 36.53678 12.424264 36.424264 
C 12.53678 36.311748 12.6 36.159122 12.6 36 
C 12.6 35.840878 12.53678 35.688252 12.424264 35.575736 
C 12.311748 35.46322 12.159122 35.4 12 35.4 
C 11.840878 35.4 11.688252 35.46322 11.575736 35.575736 
C 11.46322 35.688252 11.4 35.840878 11.4 36 
C 11.4 36.159122 11.46322 36.311748 11.575736 36.424264 
C 11.688252 36.53678 11.840878 36.6 12 36.6 
z
M 18 36.6 
C 18.159122 36.6 18.311748 36.53678 18.424264 36.424264 
C 18.53678 36.311748 18.6 36.159122 18.6 36 
C 18.6 35.840878 18.53678 35.688252 18.424264 35.575736 
C 18.311748 35.46322 18.159122 35.4 18 35.4 
C 17.840878 35.4 17.688252 35.46322 17.575736 35.575736 
C 17.46322 35.688252 17.4 35.840878 17.4 36 
C 17.4 36.159122 17.46322 36.311748 17.575736 36.424264 
C 17.688252 36.53678 17.840878 36.6 18 36.6 
z
M 24 36.6 
C 24.159122 36.6 24.311748 36.53678 24.424264 36.424264 
C 24.53678 36.311748 24.6 36.159122 24.6 36 
C 24.6 35.840878 24.53678 35.688252 24.424264 35.575736 
C 24.311748 35.46322 24.159122 35.4 24 35.4 
C 23.840878 35.4 23.688252 35.46322 23.575736 35.575736 
C 23.46322 35.688252 23.4 35.840878 23.4 36 
C 23.4 36.159122 23.46322 36.311748 23.575736 36.424264 
C 23.688252 36.53678 23.840878 36.6 24 36.6 
z
M 30 36.6 
C 30.159122 36.6 30.311748 36.53678 30.424264 36.424264 
C 30.53678 36.311748 30.6 36.159122 30.6 36 
C 30.6 35.840878 30.53678 35.688252 30.424264 35.575736 
C 30.311748 35.46322 30.159122 35.4 30 35.4 
C 29.840878 35.4 29.688252 35.46322 29.575736 35.575736 
C 29.46322 35.688252 29.4 35.840878 29.4 36 
C 29.4 36.159122 29.46322 36.311748 29.575736 36.424264 
C 29.688252 36.53678 29.840878 36.6 30 36.6 
z
M 36 36.6 
C 36.159122 36.6 36.311748 36.53678 36.424264 36.424264 
C 36.53678 36.311748 36.6 36.159122 36.6 36 
C 36.6 35.840878 36.53678 35.688252 36.424264 35.575736 
C 36.311748 35.46322 36.159122 35.4 36 35.4 
C 35.840878 35.4 35.688252 35.46322 35.575736 35.575736 
C 35.46322 35.688252 35.4 35.840878 35.4 36 
C 35.4 36.159122 35.46322 36.311748 35.575736 36.424264 
C 35.688252 36.53678 35.840878 36.6 36 36.6 
z
M 42 36.6 
C 42.159122 36.6 42.311748 36.53678 42.424264 36.424264 
C 42.53678 36.311748 42.6 36.159122 42.6 36 
C 42.6 35.840878 42.53678 35.688252 42.424264 35.575736 
C 42.311748 35.46322 42.159122 35.4 42 35.4 
C 41.840878 35.4 41.688252 35.46322 41.575736 35.575736 
C 41.46322 35.688252 41.4 35.840878 41.4 36 
C 41.4 36.159122 41.46322 36.311748 41.575736 36.424264 
C 41.688252 36.53678 41.840878 36.6 42 36.6 
z
M 48 36.6 
C 48.159122 36.6 48.311748 36.53678 48.424264 36.424264 
C 48.53678 36.311748 48.6 36.159122 48.6 36 
C 48.6 35.840878 48.53678 35.688252 48.424264 35.575736 
C 48.311748 35.46322 48.159122 35.4 48 35.4 
C 47.840878 35.4 47.688252 35.46322 47.575736 35.575736 
C 47.46322 35.688252 47.4 35.840878 47.4 36 
C 47.4 36.159122 47.46322 36.311748 47.575736 36.424264 
C 47.688252 36.53678 47.840878 36.6 48 36.6 
z
M 54 36.6 
C 54.159122 36.6 54.311748 36.53678 54.424264 36.424264 
C 54.53678 36.311748 54.6 36.159122 54.6 36 
C 54.6 35.840878 54.53678 35.688252 54.424264 35.575736 
C 54.311748 35.46322 54.159122 35.4 54 35.4 
C 53.840878 35.4 53.688252 35.46322 53.575736 35.575736 
C 53.46322 35.688252 53.4 35.840878 53.4 36 
C 53.4 36.159122 53.46322 36.311748 53.575736 36.424264 
C 53.688252 36.53678 53.840878 36.6 54 36.6 
z
M 60 36.6 
C 60.159122 36.6 60.311748 36.53678 60.424264 36.424264 
C 60.53678 36.311748 60.6 36.159122 60.6 36 
C 60.6 35.840878 60.53678 35.688252 60.424264 35.575736 
C 60.311748 35.46322 60.159122 35.4 60 35.4 
C 59.840878 35.4 59.688252 35.46322 59.575736 35.575736 
C 59.46322 35.688252 59.4 35.840878 59.4 36 
C 59.4 36.159122 59.46322 36.311748 59.575736 36.424264 
C 59.688252 36.53678 59.840878 36.6 60 36.6 
z
M 66 36.6 
C 66.159122 36.6 66.311748 36.53678 66.424264 36.424264 
C 66.53678 36.311748 66.6 36.159122 66.6 36 
C 66.6 35.840878 66.53678 35.688252 66.424264 35.575736 
C 66.311748 35.46322 66.159122 35.4 66 35.4 
C 65.840878 35.4 65.688252 35.46322 65.575736 35.575736 
C 65.46322 35.688252 65.4 35.840878 65.4 36 
C 65.4 36.159122 65.46322 36.311748 65.575736 36.424264 
C 65.688252 36.53678 65.840878 36.6 66 36.6 
z
M 72 36.6 
C 72.159122 36.6 72.311748 36.53678 72.424264 36.424264 
C 72.53678 36.311748 72.6 36.159122 72.6 36 
C 72.6 35.840878 72.53678 35.688252 72.424264 35.575736 
C 72.311748 35.46322 72.159122 35.4 72 35.4 
C 71.840878 35.4 71.688252 35.46322 71.575736 35.575736 
C 71.46322 35.688252 71.4 35.840878 71.4 36 
C 71.4 36.159122 71.46322 36.311748 71.575736 36.424264 
C 71.688252 36.53678 71.840878 36.6 72 36.6 
z
M 3 30.6 
C 3.159122 30.6 3.311748 30.53678 3.424264 30.424264 
C 3.53678 30.311748 3.6 30.159122 3.6 30 
C 3.6 29.840878 3.53678 29.688252 3.424264 29.575736 
C 3.311748 29.46322 3.159122 29.4 3 29.4 
C 2.840878 29.4 2.688252 29.46322 2.575736 29.575736 
C 2.46322 29.688252 2.4 29.840878 2.4 30 
C 2.4 30.159122 2.46322 30.311748 2.575736 30.424264 
C 2.688252 30.53678 2.840878 30.6 3 30.6 
z
M 9 30.6 
C 9.159122 30.6 9.311748 30.53678 9.424264 30.424264 
C 9.53678 30.311748 9.6 30.159122 9.6 30 
C 9.6 29.840878 9.53678 29.688252 9.424264 29.575736 
C 9.311748 29.46322 9.159122 29.4 9 29.4 
C 8.840878 29.4 8.688252 29.46322 8.575736 29.575736 
C 8.46322 29.688252 8.4 29.840878 8.4 30 
C 8.4 30.159122 8.46322 30.311748 8.575736 30.424264 
C 8.688252 30.53678 8.840878 30.6 9 30.6 
z
M 15 30.6 
C 15.159122 30.6 15.311748 30.53678 15.424264 30.424264 
C 15.53678 30.311748 15.6 30.159122 15.6 30 
C 15.6 29.840878 15.53678 29.688252 15.424264 29.575736 
C 15.311748 29.46322 15.159122 29.4 15 29.4 
C 14.840878 29.4 14.688252 29.46322 14.575736 29.575736 
C 14.46322 29.688252 14.4 29.840878 14.4 30 
C 14.4 30.159122 14.46322 30.311748 14.575736 30.424264 
C 14.688252 30.53678 14.840878 30.6 15 30.6 
z
M 21 30.6 
C 21.159122 30.6 21.311748 30.53678 21.424264 30.424264 
C 21.53678 30.311748 21.6 30.159122 21.6 30 
C 21.6 29.840878 21.53678 29.688252 21.424264 29.575736 
C 21.311748 29.46322 21.159122 29.4 21 29.4 
C 20.840878 29.4 20.688252 29.46322 20.575736 29.575736 
C 20.46322 29.688252 20.4 29.840878 20.4 30 
C 20.4 30.159122 20.46322 30.311748 20.575736 30.424264 
C 20.688252 30.53678 20.840878 30.6 21 30.6 
z
M 27 30.6 
C 27.159122 30.6 27.311748 30.53678 27.424264 30.424264 
C 27.53678 30.311748 27.6 30.159122 27.6 30 
C 27.6 29.840878 27.53678 29.688252 27.424264 29.575736 
C 27.311748 29.46322 27.159122 29.4 27 29.4 
C 26.840878 29.4 26.688252 29.46322 26.575736 29.575736 
C 26.46322 29.688252 26.4 29.840878 26.4 30 
C 26.4 30.159122 26.46322 30.311748 26.575736 30.424264 
C 26.688252 30.53678 26.840878 30.6 27 30.6 
z
M 33 30.6 
C 33.159122 30.6 33.311748 30.53678 33.424264 30.424264 
C 33.53678 30.311748 33.6 30.159122 33.6 30 
C 33.6 29.840878 33.53678 29.688252 33.424264 29.575736 
C 33.311748 29.46322 33.159122 29.4 33 29.4 
C 32.840878 29.4 32.688252 29.46322 32.575736 29.575736 
C 32.46322 29.688252 32.4 29.840878 32.4 30 
C 32.4 30.159122 32.46322 30.311748 32.575736 30.424264 
C 32.688252 30.53678 32.840878 30.6 33 30.6 
z
M 39 30.6 
C 39.159122 30.6 39.311748 30.53678 39.424264 30.424264 
C 39.53678 30.311748 39.6 30.159122 39.6 30 
C 39.6 29.840878 39.53678 29.688252 39.424264 29.575736 
C 39.311748 29.46322 39.159122 29.4 39 29.4 
C 38.840878 29.4 38.688252 29.46322 38.575736 29.575736 
C 38.46322 29.688252 38.4 29.840878 38.4 30 
C 38.4 30.159122 38.46322 30.311748 38.575736 30.424264 
C 38.688252 30.53678 38.840878 30.6 39 30.6 
z
M 45 30.6 
C 45.159122 30.6 45.311748 30.53678 45.424264 30.424264 
C 45.53678 30.311748 45.6 30.159122 45.6 30 
C 45.6 29.840878 45.53678 29.688252 45.424264 29.575736 
C 45.311748 29.46322 45.159122 29.4 45 29.4 
C 44.840878 29.4 44.688252 29.46322 44.575736 29.575736 
C 44.46322 29.688252 44.4 29.840878 44.4 30 
C 44.4 30.159122 44.46322 30.311748 44.575736 30.424264 
C 44.688252 30.53678 44.840878 30.6 45 30.6 
z
M 51 30.6 
C 51.159122 30.6 51.311748 30.53678 51.424264 30.424264 
C 51.53678 30.311748 51.6 30.159122 51.6 30 
C 51.6 29.840878 51.53678 29.688252 51.424264 29.575736 
C 51.311748 29.46322 51.159122 29.4 51 29.4 
C 50.840878 29.4 50.688252 29.46322 50.575736 29.575736 
C 50.46322 29.688252 50.4 29.840878 50.4 30 
C 50.4 30.159122 50.46322 30.311748 50.575736 30.424264 
C 50.688252 30.53678 50.840878 30.6 51 30.6 
z
M 57 30.6 
C 57.159122 30.6 57.311748 30.53678 57.424264 30.424264 
C 57.53678 30.311748 57.6 30.159122 57.6 30 
C 57.6 29.840878 57.53678 29.688252 57.424264 29.575736 
C 57.311748 29.46322 57.159122 29.4 57 29.4 
C 56.840878 29.4 56.688252 29.46322 56.575736 29.575736 
C 56.46322 29.688252 56.4 29.840878 56.4 30 
C 56.4 30.159122 56.46322 30.311748 56.575736 30.424264 
C 56.688252 30.53678 56.840878 30.6 57 30.6 
z
M 63 30.6 
C 63.159122 30.6 63.311748 30.53678 63.424264 30.424264 
C 63.53678 30.311748 63.6 30.159122 63.6 30 
C 63.6 29.840878 63.53678 29.688252 63.424264 29.575736 
C 63.311748 29.46322 63.159122 29.4 63 29.4 
C 62.840878 29.4 62.688252 29.46322 62.575736 29.575736 
C 62.46322 29.688252 62.4 29.840878 62.4 30 
C 62.4 30.159122 62.46322 30.311748 62.575736 30.424264 
C 62.688252 30.53678 62.840878 30.6 63 30.6 
z
M 69 30.6 
C 69.159122 30.6 69.311748 30.53678 69.424264 30.424264 
C 69.53678 30.311748 69.6 30.159122 69.6 30 
C 69.6 29.840878 69.53678 29.688252 69.424264 29.575736 
C 69.311748 29.46322 69.159122 29.4 69 29.4 
C 68.840878 29.4 68.688252 29.46322 68.575736 29.575736 
C 68.46322 29.688252 68.4 29.840878 68.4 30 
C 68.4 30.159122 68.46322 30.311748 68.575736 30.424264 
C 68.688252 30.53678 68.840878 30.6 69 30.6 
z
M 0 24.6 
C 0.159122 24.6 0.311748 24.53678 0.424264 24.424264 
C 0.53678 24.311748 0.6 24.159122 0.6 24 
C 0.6 23.840878 0.53678 23.688252 0.424264 23.575736 
C 0.311748 23.46322 0.159122 23.4 0 23.4 
C -0.159122 23.4 -0.311748 23.46322 -0.424264 23.575736 
C -0.53678 23.688252 -0.6 23.840878 -0.6 24 
C -0.6 24.159122 -0.53678 24.311748 -0.424264 24.424264 
C -0.311748 24.53678 -0.159122 24.6 0 24.6 
z
M 6 24.6 
C 6.159122 24.6 6.311748 24.53678 6.424264 24.424264 
C 6.53678 24.311748 6.6 24.159122 6.6 24 
C 6.6 23.840878 6.53678 23.688252 6.424264 23.575736 
C 6.311748 23.46322 6.159122 23.4 6 23.4 
C 5.840878 23.4 5.688252 23.46322 5.575736 23.575736 
C 5.46322 23.688252 5.4 23.840878 5.4 24 
C 5.4 24.159122 5.46322 24.311748 5.575736 24.424264 
C 5.688252 24.53678 5.840878 24.6 6 24.6 
z
M 12 24.6 
C 12.159122 24.6 12.311748 24.53678 12.424264 24.424264 
C 12.53678 24.311748 12.6 24.159122 12.6 24 
C 12.6 23.840878 12.53678 23.688252 12.424264 23.575736 
C 12.311748 23.46322 12.159122 23.4 12 23.4 
C 11.840878 23.4 11.688252 23.46322 11.575736 23.575736 
C 11.46322 23.688252 11.4 23.840878 11.4 24 
C 11.4 24.159122 11.46322 24.311748 11.575736 24.424264 
C 11.688252 24.53678 11.840878 24.6 12 24.6 
z
M 18 24.6 
C 18.159122 24.6 18.311748 24.53678 18.424264 24.424264 
C 18.53678 24.311748 18.6 24.159122 18.6 24 
C 18.6 23.840878 18.53678 23.688252 18.424264 23.575736 
C 18.311748 23.46322 18.159122 23.4 18 23.4 
C 17.840878 23.4 17.688252 23.46322 17.575736 23.575736 
C 17.46322 23.688252 17.4 23.840878 17.4 24 
C 17.4 24.159122 17.46322 24.311748 17.575736 24.424264 
C 17.688252 24.53678 17.840878 24.6 18 24.6 
z
M 24 24.6 
C 24.159122 24.6 24.311748 24.53678 24.424264 24.424264 
C 24.53678 24.311748 24.6 24.159122 24.6 24 
C 24.6 23.840878 24.53678 23.688252 24.424264 23.575736 
C 24.311748 23.46322 24.159122 23.4 24 23.4 
C 23.840878 23.4 23.688252 23.46322 23.575736 23.575736 
C 23.46322 23.688252 23.4 23.840878 23.4 24 
C 23.4 24.159122 23.46322 24.311748 23.575736 24.424264 
C 23.688252 24.53678 23.840878 24.6 24 24.6 
z
M 30 24.6 
C 30.159122 24.6 30.311748 24.53678 30.424264 24.424264 
C 30.53678 24.311748 30.6 24.159122 30.6 24 
C 30.6 23.840878 30.53678 23.688252 30.424264 23.575736 
C 30.311748 23.46322 30.159122 23.4 30 23.4 
C 29.840878 23.4 29.688252 23.46322 29.575736 23.575736 
C 29.46322 23.688252 29.4 23.840878 29.4 24 
C 29.4 24.159122 29.46322 24.311748 29.575736 24.424264 
C 29.688252 24.53678 29.840878 24.6 30 24.6 
z
M 36 24.6 
C 36.159122 24.6 36.311748 24.53678 36.424264 24.424264 
C 36.53678 24.311748 36.6 24.159122 36.6 24 
C 36.6 23.840878 36.53678 23.688252 36.424264 23.575736 
C 36.311748 23.46322 36.159122 23.4 36 23.4 
C 35.840878 23.4 35.688252 23.46322 35.575736 23.575736 
C 35.46322 23.688252 35.4 23.840878 35.4 24 
C 35.4 24.159122 35.46322 24.311748 35.575736 24.424264 
C 35.688252 24.53678 35.840878 24.6 36 24.6 
z
M 42 24.6 
C 42.159122 24.6 42.311748 24.53678 42.424264 24.424264 
C 42.53678 24.311748 42.6 24.159122 42.6 24 
C 42.6 23.840878 42.53678 23.688252 42.424264 23.575736 
C 42.311748 23.46322 42.159122 23.4 42 23.4 
C 41.840878 23.4 41.688252 23.46322 41.575736 23.575736 
C 41.46322 23.688252 41.4 23.840878 41.4 24 
C 41.4 24.159122 41.46322 24.311748 41.575736 24.424264 
C 41.688252 24.53678 41.840878 24.6 42 24.6 
z
M 48 24.6 
C 48.159122 24.6 48.311748 24.53678 48.424264 24.424264 
C 48.53678 24.311748 48.6 24.159122 48.6 24 
C 48.6 23.840878 48.53678 23.688252 48.424264 23.575736 
C 48.311748 23.46322 48.159122 23.4 48 23.4 
C 47.840878 23.4 47.688252 23.46322 47.575736 23.575736 
C 47.46322 23.688252 47.4 23.840878 47.4 24 
C 47.4 24.159122 47.46322 24.311748 47.575736 24.424264 
C 47.688252 24.53678 47.840878 24.6 48 24.6 
z
M 54 24.6 
C 54.159122 24.6 54.311748 24.53678 54.424264 24.424264 
C 54.53678 24.311748 54.6 24.159122 54.6 24 
C 54.6 23.840878 54.53678 23.688252 54.424264 23.575736 
C 54.311748 23.46322 54.159122 23.4 54 23.4 
C 53.840878 23.4 53.688252 23.46322 53.575736 23.575736 
C 53.46322 23.688252 53.4 23.840878 53.4 24 
C 53.4 24.159122 53.46322 24.311748 53.575736 24.424264 
C 53.688252 24.53678 53.840878 24.6 54 24.6 
z
M 60 24.6 
C 60.159122 24.6 60.311748 24.53678 60.424264 24.424264 
C 60.53678 24.311748 60.6 24.159122 60.6 24 
C 60.6 23.840878 60.53678 23.688252 60.424264 23.575736 
C 60.311748 23.46322 60.159122 23.4 60 23.4 
C 59.840878 23.4 59.688252 23.46322 59.575736 23.575736 
C 59.46322 23.688252 59.4 23.840878 59.4 24 
C 59.4 24.159122 59.46322 24.311748 59.575736 24.424264 
C 59.688252 24.53678 59.840878 24.6 60 24.6 
z
M 66 24.6 
C 66.159122 24.6 66.311748 24.53678 66.424264 24.424264 
C 66.53678 24.311748 66.6 24.159122 66.6 24 
C 66.6 23.840878 66.53678 23.688252 66.424264 23.575736 
C 66.311748 23.46322 66.159122 23.4 66 23.4 
C 65.840878 23.4 65.688252 23.46322 65.575736 23.575736 
C 65.46322 23.688252 65.4 23.840878 65.4 24 
C 65.4 24.159122 65.46322 24.311748 65.575736 24.424264 
C 65.688252 24.53678 65.840878 24.6 66 24.6 
z
M 72 24.6 
C 72.159122 24.6 72.311748 24.53678 72.424264 24.424264 
C 72.53678 24.311748 72.6 24.159122 72.6 24 
C 72.6 23.840878 72.53678 23.688252 72.424264 23.575736 
C 72.311748 23.46322 72.159122 23.4 72 23.4 
C 71.840878 23.4 71.688252 23.46322 71.575736 23.575736 
C 71.46322 23.688252 71.4 23.840878 71.4 24 
C 71.4 24.159122 71.46322 24.311748 71.575736 24.424264 
C 71.688252 24.53678 71.840878 24.6 72 24.6 
z
M 3 18.6 
C 3.159122 18.6 3.311748 18.53678 3.424264 18.424264 
C 3.53678 18.311748 3.6 18.159122 3.6 18 
C 3.6 17.840878 3.53678 17.688252 3.424264 17.575736 
C 3.311748 17.46322 3.159122 17.4 3 17.4 
C 2.840878 17.4 2.688252 17.46322 2.575736 17.575736 
C 2.46322 17.688252 2.4 17.840878 2.4 18 
C 2.4 18.159122 2.46322 18.311748 2.575736 18.424264 
C 2.688252 18.53678 2.840878 18.6 3 18.6 
z
M 9 18.6 
C 9.159122 18.6 9.311748 18.53678 9.424264 18.424264 
C 9.53678 18.311748 9.6 18.159122 9.6 18 
C 9.6 17.840878 9.53678 17.688252 9.424264 17.575736 
C 9.311748 17.46322 9.159122 17.4 9 17.4 
C 8.840878 17.4 8.688252 17.46322 8.575736 17.575736 
C 8.46322 17.688252 8.4 17.840878 8.4 18 
C 8.4 18.159122 8.46322 18.311748 8.575736 18.424264 
C 8.688252 18.53678 8.840878 18.6 9 18.6 
z
M 15 18.6 
C 15.159122 18.6 15.311748 18.53678 15.424264 18.424264 
C 15.53678 18.311748 15.6 18.159122 15.6 18 
C 15.6 17.840878 15.53678 17.688252 15.424264 17.575736 
C 15.311748 17.46322 15.159122 17.4 15 17.4 
C 14.840878 17.4 14.688252 17.46322 14.575736 17.575736 
C 14.46322 17.688252 14.4 17.840878 14.4 18 
C 14.4 18.159122 14.46322 18.311748 14.575736 18.424264 
C 14.688252 18.53678 14.840878 18.6 15 18.6 
z
M 21 18.6 
C 21.159122 18.6 21.311748 18.53678 21.424264 18.424264 
C 21.53678 18.311748 21.6 18.159122 21.6 18 
C 21.6 17.840878 21.53678 17.688252 21.424264 17.575736 
C 21.311748 17.46322 21.159122 17.4 21 17.4 
C 20.840878 17.4 20.688252 17.46322 20.575736 17.575736 
C 20.46322 17.688252 20.4 17.840878 20.4 18 
C 20.4 18.159122 20.46322 18.311748 20.575736 18.424264 
C 20.688252 18.53678 20.840878 18.6 21 18.6 
z
M 27 18.6 
C 27.159122 18.6 27.311748 18.53678 27.424264 18.424264 
C 27.53678 18.311748 27.6 18.159122 27.6 18 
C 27.6 17.840878 27.53678 17.688252 27.424264 17.575736 
C 27.311748 17.46322 27.159122 17.4 27 17.4 
C 26.840878 17.4 26.688252 17.46322 26.575736 17.575736 
C 26.46322 17.688252 26.4 17.840878 26.4 18 
C 26.4 18.159122 26.46322 18.311748 26.575736 18.424264 
C 26.688252 18.53678 26.840878 18.6 27 18.6 
z
M 33 18.6 
C 33.159122 18.6 33.311748 18.53678 33.424264 18.424264 
C 33.53678 18.311748 33.6 18.159122 33.6 18 
C 33.6 17.840878 33.53678 17.688252 33.424264 17.575736 
C 33.311748 17.46322 33.159122 17.4 33 17.4 
C 32.840878 17.4 32.688252 17.46322 32.575736 17.575736 
C 32.46322 17.688252 32.4 17.840878 32.4 18 
C 32.4 18.159122 32.46322 18.311748 32.575736 18.424264 
C 32.688252 18.53678 32.840878 18.6 33 18.6 
z
M 39 18.6 
C 39.159122 18.6 39.311748 18.53678 39.424264 18.424264 
C 39.53678 18.311748 39.6 18.159122 39.6 18 
C 39.6 17.840878 39.53678 17.688252 39.424264 17.575736 
C 39.311748 17.46322 39.159122 17.4 39 17.4 
C 38.840878 17.4 38.688252 17.46322 38.575736 17.575736 
C 38.46322 17.688252 38.4 17.840878 38.4 18 
C 38.4 18.159122 38.46322 18.311748 38.575736 18.424264 
C 38.688252 18.53678 38.840878 18.6 39 18.6 
z
M 45 18.6 
C 45.159122 18.6 45.311748 18.53678 45.424264 18.424264 
C 45.53678 18.311748 45.6 18.159122 45.6 18 
C 45.6 17.840878 45.53678 17.688252 45.424264 17.575736 
C 45.311748 17.46322 45.159122 17.4 45 17.4 
C 44.840878 17.4 44.688252 17.46322 44.575736 17.575736 
C 44.46322 17.688252 44.4 17.840878 44.4 18 
C 44.4 18.159122 44.46322 18.311748 44.575736 18.424264 
C 44.688252 18.53678 44.840878 18.6 45 18.6 
z
M 51 18.6 
C 51.159122 18.6 51.311748 18.53678 51.424264 18.424264 
C 51.53678 18.311748 51.6 18.159122 51.6 18 
C 51.6 17.840878 51.53678 17.688252 51.424264 17.575736 
C 51.311748 17.46322 51.159122 17.4 51 17.4 
C 50.840878 17.4 50.688252 17.46322 50.575736 17.575736 
C 50.46322 17.688252 50.4 17.840878 50.4 18 
C 50.4 18.159122 50.46322 18.311748 50.575736 18.424264 
C 50.688252 18.53678 50.840878 18.6 51 18.6 
z
M 57 18.6 
C 57.159122 18.6 57.311748 18.53678 57.424264 18.424264 
C 57.53678 18.311748 57.6 18.159122 57.6 18 
C 57.6 17.840878 57.53678 17.688252 57.424264 17.575736 
C 57.311748 17.46322 57.159122 17.4 57 17.4 
C 56.840878 17.4 56.688252 17.46322 56.575736 17.575736 
C 56.46322 17.688252 56.4 17.840878 56.4 18 
C 56.4 18.159122 56.46322 18.311748 56.575736 18.424264 
C 56.688252 18.53678 56.840878 18.6 57 18.6 
z
M 63 18.6 
C 63.159122 18.6 63.311748 18.53678 63.424264 18.424264 
C 63.53678 18.311748 63.6 18.159122 63.6 18 
C 63.6 17.840878 63.53678 17.688252 63.424264 17.575736 
C 63.311748 17.46322 63.159122 17.4 63 17.4 
C 62.840878 17.4 62.688252 17.46322 62.575736 17.575736 
C 62.46322 17.688252 62.4 17.840878 62.4 18 
C 62.4 18.159122 62.46322 18.311748 62.575736 18.424264 
C 62.688252 18.53678 62.840878 18.6 63 18.6 
z
M 69 18.6 
C 69.159122 18.6 69.311748 18.53678 69.424264 18.424264 
C 69.53678 18.311748 69.6 18.159122 69.6 18 
C 69.6 17.840878 69.53678 17.688252 69.424264 17.575736 
C 69.311748 17.46322 69.159122 17.4 69 17.4 
C 68.840878 17.4 68.688252 17.46322 68.575736 17.575736 
C 68.46322 17.688252 68.4 17.840878 68.4 18 
C 68.4 18.159122 68.46322 18.311748 68.575736 18.424264 
C 68.688252 18.53678 68.840878 18.6 69 18.6 
z
M 0 12.6 
C 0.159122 12.6 0.311748 12.53678 0.424264 12.424264 
C 0.53678 12.311748 0.6 12.159122 0.6 12 
C 0.6 11.840878 0.53678 11.688252 0.424264 11.575736 
C 0.311748 11.46322 0.159122 11.4 0 11.4 
C -0.159122 11.4 -0.311748 11.46322 -0.424264 11.575736 
C -0.53678 11.688252 -0.6 11.840878 -0.6 12 
C -0.6 12.159122 -0.53678 12.311748 -0.424264 12.424264 
C -0.311748 12.53678 -0.159122 12.6 0 12.6 
z
M 6 12.6 
C 6.159122 12.6 6.311748 12.53678 6.424264 12.424264 
C 6.53678 12.311748 6.6 12.159122 6.6 12 
C 6.6 11.840878 6.53678 11.688252 6.424264 11.575736 
C 6.311748 11.46322 6.159122 11.4 6 11.4 
C 5.840878 11.4 5.688252 11.46322 5.575736 11.575736 
C 5.46322 11.688252 5.4 11.840878 5.4 12 
C 5.4 12.159122 5.46322 12.311748 5.575736 12.424264 
C 5.688252 12.53678 5.840878 12.6 6 12.6 
z
M 12 12.6 
C 12.159122 12.6 12.311748 12.53678 12.424264 12.424264 
C 12.53678 12.311748 12.6 12.159122 12.6 12 
C 12.6 11.840878 12.53678 11.688252 12.424264 11.575736 
C 12.311748 11.46322 12.159122 11.4 12 11.4 
C 11.840878 11.4 11.688252 11.46322 11.575736 11.575736 
C 11.46322 11.688252 11.4 11.840878 11.4 12 
C 11.4 12.159122 11.46322 12.311748 11.575736 12.424264 
C 11.688252 12.53678 11.840878 12.6 12 12.6 
z
M 18 12.6 
C 18.159122 12.6 18.311748 12.53678 18.424264 12.424264 
C 18.53678 12.311748 18.6 12.159122 18.6 12 
C 18.6 11.840878 18.53678 11.688252 18.424264 11.575736 
C 18.311748 11.46322 18.159122 11.4 18 11.4 
C 17.840878 11.4 17.688252 11.46322 17.575736 11.575736 
C 17.46322 11.688252 17.4 11.840878 17.4 12 
C 17.4 12.159122 17.46322 12.311748 17.575736 12.424264 
C 17.688252 12.53678 17.840878 12.6 18 12.6 
z
M 24 12.6 
C 24.159122 12.6 24.311748 12.53678 24.424264 12.424264 
C 24.53678 12.311748 24.6 12.159122 24.6 12 
C 24.6 11.840878 24.53678 11.688252 24.424264 11.575736 
C 24.311748 11.46322 24.159122 11.4 24 11.4 
C 23.840878 11.4 23.688252 11.46322 23.575736 11.575736 
C 23.46322 11.688252 23.4 11.840878 23.4 12 
C 23.4 12.159122 23.46322 12.311748 23.575736 12.424264 
C 23.688252 12.53678 23.840878 12.6 24 12.6 
z
M 30 12.6 
C 30.159122 12.6 30.311748 12.53678 30.424264 12.424264 
C 30.53678 12.311748 30.6 12.159122 30.6 12 
C 30.6 11.840878 30.53678 11.688252 30.424264 11.575736 
C 30.311748 11.46322 30.159122 11.4 30 11.4 
C 29.840878 11.4 29.688252 11.46322 29.575736 11.575736 
C 29.46322 11.688252 29.4 11.840878 29.4 12 
C 29.4 12.159122 29.46322 12.311748 29.575736 12.424264 
C 29.688252 12.53678 29.840878 12.6 30 12.6 
z
M 36 12.6 
C 36.159122 12.6 36.311748 12.53678 36.424264 12.424264 
C 36.53678 12.311748 36.6 12.159122 36.6 12 
C 36.6 11.840878 36.53678 11.688252 36.424264 11.575736 
C 36.311748 11.46322 36.159122 11.4 36 11.4 
C 35.840878 11.4 35.688252 11.46322 35.575736 11.575736 
C 35.46322 11.688252 35.4 11.840878 35.4 12 
C 35.4 12.159122 35.46322 12.311748 35.575736 12.424264 
C 35.688252 12.53678 35.840878 12.6 36 12.6 
z
M 42 12.6 
C 42.159122 12.6 42.311748 12.53678 42.424264 12.424264 
C 42.53678 12.311748 42.6 12.159122 42.6 12 
C 42.6 11.840878 42.53678 11.688252 42.424264 11.575736 
C 42.311748 11.46322 42.159122 11.4 42 11.4 
C 41.840878 11.4 41.688252 11.46322 41.575736 11.575736 
C 41.46322 11.688252 41.4 11.840878 41.4 12 
C 41.4 12.159122 41.46322 12.311748 41.575736 12.424264 
C 41.688252 12.53678 41.840878 12.6 42 12.6 
z
M 48 12.6 
C 48.159122 12.6 48.311748 12.53678 48.424264 12.424264 
C 48.53678 12.311748 48.6 12.159122 48.6 12 
C 48.6 11.840878 48.53678 11.688252 48.424264 11.575736 
C 48.311748 11.46322 48.159122 11.4 48 11.4 
C 47.840878 11.4 47.688252 11.46322 47.575736 11.575736 
C 47.46322 11.688252 47.4 11.840878 47.4 12 
C 47.4 12.159122 47.46322 12.311748 47.575736 12.424264 
C 47.688252 12.53678 47.840878 12.6 48 12.6 
z
M 54 12.6 
C 54.159122 12.6 54.311748 12.53678 54.424264 12.424264 
C 54.53678 12.311748 54.6 12.159122 54.6 12 
C 54.6 11.840878 54.53678 11.688252 54.424264 11.575736 
C 54.311748 11.46322 54.159122 11.4 54 11.4 
C 53.840878 11.4 53.688252 11.46322 53.575736 11.575736 
C 53.46322 11.688252 53.4 11.840878 53.4 12 
C 53.4 12.159122 53.46322 12.311748 53.575736 12.424264 
C 53.688252 12.53678 53.840878 12.6 54 12.6 
z
M 60 12.6 
C 60.159122 12.6 60.311748 12.53678 60.424264 12.424264 
C 60.53678 12.311748 60.6 12.159122 60.6 12 
C 60.6 11.840878 60.53678 11.688252 60.424264 11.575736 
C 60.311748 11.46322 60.159122 11.4 60 11.4 
C 59.840878 11.4 59.688252 11.46322 59.575736 11.575736 
C 59.46322 11.688252 59.4 11.840878 59.4 12 
C 59.4 12.159122 59.46322 12.311748 59.575736 12.424264 
C 59.688252 12.53678 59.840878 12.6 60 12.6 
z
M 66 12.6 
C 66.159122 12.6 66.311748 12.53678 66.424264 12.424264 
C 66.53678 12.311748 66.6 12.159122 66.6 12 
C 66.6 11.840878 66.53678 11.688252 66.424264 11.575736 
C 66.311748 11.46322 66.159122 11.4 66 11.4 
C 65.840878 11.4 65.688252 11.46322 65.575736 11.575736 
C 65.46322 11.688252 65.4 11.840878 65.4 12 
C 65.4 12.159122 65.46322 12.311748 65.575736 12.424264 
C 65.688252 12.53678 65.840878 12.6 66 12.6 
z
M 72 12.6 
C 72.159122 12.6 72.311748 12.53678 72.424264 12.424264 
C 72.53678 12.311748 72.6 12.159122 72.6 12 
C 72.6 11.840878 72.53678 11.688252 72.424264 11.575736 
C 72.311748 11.46322 72.159122 11.4 72 11.4 
C 71.840878 11.4 71.688252 11.46322 71.575736 11.575736 
C 71.46322 11.688252 71.4 11.840878 71.4 12 
C 71.4 12.159122 71.46322 12.311748 71.575736 12.424264 
C 71.688252 12.53678 71.840878 12.6 72 12.6 
z
M 3 6.6 
C 3.159122 6.6 3.311748 6.53678 3.424264 6.424264 
C 3.53678 6.311748 3.6 6.159122 3.6 6 
C 3.6 5.840878 3.53678 5.688252 3.424264 5.575736 
C 3.311748 5.46322 3.159122 5.4 3 5.4 
C 2.840878 5.4 2.688252 5.46322 2.575736 5.575736 
C 2.46322 5.688252 2.4 5.840878 2.4 6 
C 2.4 6.159122 2.46322 6.311748 2.575736 6.424264 
C 2.688252 6.53678 2.840878 6.6 3 6.6 
z
M 9 6.6 
C 9.159122 6.6 9.311748 6.53678 9.424264 6.424264 
C 9.53678 6.311748 9.6 6.159122 9.6 6 
C 9.6 5.840878 9.53678 5.688252 9.424264 5.575736 
C 9.311748 5.46322 9.159122 5.4 9 5.4 
C 8.840878 5.4 8.688252 5.46322 8.575736 5.575736 
C 8.46322 5.688252 8.4 5.840878 8.4 6 
C 8.4 6.159122 8.46322 6.311748 8.575736 6.424264 
C 8.688252 6.53678 8.840878 6.6 9 6.6 
z
M 15 6.6 
C 15.159122 6.6 15.311748 6.53678 15.424264 6.424264 
C 15.53678 6.311748 15.6 6.159122 15.6 6 
C 15.6 5.840878 15.53678 5.688252 15.424264 5.575736 
C 15.311748 5.46322 15.159122 5.4 15 5.4 
C 14.840878 5.4 14.688252 5.46322 14.575736 5.575736 
C 14.46322 5.688252 14.4 5.840878 14.4 6 
C 14.4 6.159122 14.46322 6.311748 14.575736 6.424264 
C 14.688252 6.53678 14.840878 6.6 15 6.6 
z
M 21 6.6 
C 21.159122 6.6 21.311748 6.53678 21.424264 6.424264 
C 21.53678 6.311748 21.6 6.159122 21.6 6 
C 21.6 5.840878 21.53678 5.688252 21.424264 5.575736 
C 21.311748 5.46322 21.159122 5.4 21 5.4 
C 20.840878 5.4 20.688252 5.46322 20.575736 5.575736 
C 20.46322 5.688252 20.4 5.840878 20.4 6 
C 20.4 6.159122 20.46322 6.311748 20.575736 6.424264 
C 20.688252 6.53678 20.840878 6.6 21 6.6 
z
M 27 6.6 
C 27.159122 6.6 27.311748 6.53678 27.424264 6.424264 
C 27.53678 6.311748 27.6 6.159122 27.6 6 
C 27.6 5.840878 27.53678 5.688252 27.424264 5.575736 
C 27.311748 5.46322 27.159122 5.4 27 5.4 
C 26.840878 5.4 26.688252 5.46322 26.575736 5.575736 
C 26.46322 5.688252 26.4 5.840878 26.4 6 
C 26.4 6.159122 26.46322 6.311748 26.575736 6.424264 
C 26.688252 6.53678 26.840878 6.6 27 6.6 
z
M 33 6.6 
C 33.159122 6.6 33.311748 6.53678 33.424264 6.424264 
C 33.53678 6.311748 33.6 6.159122 33.6 6 
C 33.6 5.840878 33.53678 5.688252 33.424264 5.575736 
C 33.311748 5.46322 33.159122 5.4 33 5.4 
C 32.840878 5.4 32.688252 5.46322 32.575736 5.575736 
C 32.46322 5.688252 32.4 5.840878 32.4 6 
C 32.4 6.159122 32.46322 6.311748 32.575736 6.424264 
C 32.688252 6.53678 32.840878 6.6 33 6.6 
z
M 39 6.6 
C 39.159122 6.6 39.311748 6.53678 39.424264 6.424264 
C 39.53678 6.311748 39.6 6.159122 39.6 6 
C 39.6 5.840878 39.53678 5.688252 39.424264 5.575736 
C 39.311748 5.46322 39.159122 5.4 39 5.4 
C 38.840878 5.4 38.688252 5.46322 38.575736 5.575736 
C 38.46322 5.688252 38.4 5.840878 38.4 6 
C 38.4 6.159122 38.46322 6.311748 38.575736 6.424264 
C 38.688252 6.53678 38.840878 6.6 39 6.6 
z
M 45 6.6 
C 45.159122 6.6 45.311748 6.53678 45.424264 6.424264 
C 45.53678 6.311748 45.6 6.159122 45.6 6 
C 45.6 5.840878 45.53678 5.688252 45.424264 5.575736 
C 45.311748 5.46322 45.159122 5.4 45 5.4 
C 44.840878 5.4 44.688252 5.46322 44.575736 5.575736 
C 44.46322 5.688252 44.4 5.840878 44.4 6 
C 44.4 6.159122 44.46322 6.311748 44.575736 6.424264 
C 44.688252 6.53678 44.840878 6.6 45 6.6 
z
M 51 6.6 
C 51.159122 6.6 51.311748 6.53678 51.424264 6.424264 
C 51.53678 6.311748 51.6 6.159122 51.6 6 
C 51.6 5.840878 51.53678 5.688252 51.424264 5.575736 
C 51.311748 5.46322 51.159122 5.4 51 5.4 
C 50.840878 5.4 50.688252 5.46322 50.575736 5.575736 
C 50.46322 5.688252 50.4 5.840878 50.4 6 
C 50.4 6.159122 50.46322 6.311748 50.575736 6.424264 
C 50.688252 6.53678 50.840878 6.6 51 6.6 
z
M 57 6.6 
C 57.159122 6.6 57.311748 6.53678 57.424264 6.424264 
C 57.53678 6.311748 57.6 6.159122 57.6 6 
C 57.6 5.840878 57.53678 5.688252 57.424264 5.575736 
C 57.311748 5.46322 57.159122 5.4 57 5.4 
C 56.840878 5.4 56.688252 5.46322 56.575736 5.575736 
C 56.46322 5.688252 56.4 5.840878 56.4 6 
C 56.4 6.159122 56.46322 6.311748 56.575736 6.424264 
C 56.688252 6.53678 56.840878 6.6 57 6.6 
z
M 63 6.6 
C 63.159122 6.6 63.311748 6.53678 63.424264 6.424264 
C 63.53678 6.311748 63.6 6.159122 63.6 6 
C 63.6 5.840878 63.53678 5.688252 63.424264 5.575736 
C 63.311748 5.46322 63.159122 5.4 63 5.4 
C 62.840878 5.4 62.688252 5.46322 62.575736 5.575736 
C 62.46322 5.688252 62.4 5.840878 62.4 6 
C 62.4 6.159122 62.46322 6.311748 62.575736 6.424264 
C 62.688252 6.53678 62.840878 6.6 63 6.6 
z
M 69 6.6 
C 69.159122 6.6 69.311748 6.53678 69.424264 6.424264 
C 69.53678 6.311748 69.6 6.159122 69.6 6 
C 69.6 5.840878 69.53678 5.688252 69.424264 5.575736 
C 69.311748 5.46322 69.159122 5.4 69 5.4 
C 68.840878 5.4 68.688252 5.46322 68.575736 5.575736 
C 68.46322 5.688252 68.4 5.840878 68.4 6 
C 68.4 6.159122 68.46322 6.311748 68.575736 6.424264 
C 68.688252 6.53678 68.840878 6.6 69 6.6 
z
M 0 0.6 
C 0.159122 0.6 0.311748 0.53678 0.424264 0.424264 
C 0.53678 0.311748 0.6 0.159122 0.6 0 
C 0.6 -0.159122 0.53678 -0.311748 0.424264 -0.424264 
C 0.311748 -0.53678 0.159122 -0.6 0 -0.6 
C -0.159122 -0.6 -0.311748 -0.53678 -0.424264 -0.424264 
C -0.53678 -0.311748 -0.6 -0.159122 -0.6 0 
C -0.6 0.159122 -0.53678 0.311748 -0.424264 0.424264 
C -0.311748 0.53678 -0.159122 0.6 0 0.6 
z
M 6 0.6 
C 6.159122 0.6 6.311748 0.53678 6.424264 0.424264 
C 6.53678 0.311748 6.6 0.159122 6.6 0 
C 6.6 -0.159122 6.53678 -0.311748 6.424264 -0.424264 
C 6.311748 -0.53678 6.159122 -0.6 6 -0.6 
C 5.840878 -0.6 5.688252 -0.53678 5.575736 -0.424264 
C 5.46322 -0.311748 5.4 -0.159122 5.4 0 
C 5.4 0.159122 5.46322 0.311748 5.575736 0.424264 
C 5.688252 0.53678 5.840878 0.6 6 0.6 
z
M 12 0.6 
C 12.159122 0.6 12.311748 0.53678 12.424264 0.424264 
C 12.53678 0.311748 12.6 0.159122 12.6 0 
C 12.6 -0.159122 12.53678 -0.311748 12.424264 -0.424264 
C 12.311748 -0.53678 12.159122 -0.6 12 -0.6 
C 11.840878 -0.6 11.688252 -0.53678 11.575736 -0.424264 
C 11.46322 -0.311748 11.4 -0.159122 11.4 0 
C 11.4 0.159122 11.46322 0.311748 11.575736 0.424264 
C 11.688252 0.53678 11.840878 0.6 12 0.6 
z
M 18 0.6 
C 18.159122 0.6 18.311748 0.53678 18.424264 0.424264 
C 18.53678 0.311748 18.6 0.159122 18.6 0 
C 18.6 -0.159122 18.53678 -0.311748 18.424264 -0.424264 
C 18.311748 -0.53678 18.159122 -0.6 18 -0.6 
C 17.840878 -0.6 17.688252 -0.53678 17.575736 -0.424264 
C 17.46322 -0.311748 17.4 -0.159122 17.4 0 
C 17.4 0.159122 17.46322 0.311748 17.575736 0.424264 
C 17.688252 0.53678 17.840878 0.6 18 0.6 
z
M 24 0.6 
C 24.159122 0.6 24.311748 0.53678 24.424264 0.424264 
C 24.53678 0.311748 24.6 0.159122 24.6 0 
C 24.6 -0.159122 24.53678 -0.311748 24.424264 -0.424264 
C 24.311748 -0.53678 24.159122 -0.6 24 -0.6 
C 23.840878 -0.6 23.688252 -0.53678 23.575736 -0.424264 
C 23.46322 -0.311748 23.4 -0.159122 23.4 0 
C 23.4 0.159122 23.46322 0.311748 23.575736 0.424264 
C 23.688252 0.53678 23.840878 0.6 24 0.6 
z
M 30 0.6 
C 30.159122 0.6 30.311748 0.53678 30.424264 0.424264 
C 30.53678 0.311748 30.6 0.159122 30.6 0 
C 30.6 -0.159122 30.53678 -0.311748 30.424264 -0.424264 
C 30.311748 -0.53678 30.159122 -0.6 30 -0.6 
C 29.840878 -0.6 29.688252 -0.53678 29.575736 -0.424264 
C 29.46322 -0.311748 29.4 -0.159122 29.4 0 
C 29.4 0.159122 29.46322 0.311748 29.575736 0.424264 
C 29.688252 0.53678 29.840878 0.6 30 0.6 
z
M 36 0.6 
C 36.159122 0.6 36.311748 0.53678 36.424264 0.424264 
C 36.53678 0.311748 36.6 0.159122 36.6 0 
C 36.6 -0.159122 36.53678 -0.311748 36.424264 -0.424264 
C 36.311748 -0.53678 36.159122 -0.6 36 -0.6 
C 35.840878 -0.6 35.688252 -0.53678 35.575736 -0.424264 
C 35.46322 -0.311748 35.4 -0.159122 35.4 0 
C 35.4 0.159122 35.46322 0.311748 35.575736 0.424264 
C 35.688252 0.53678 35.840878 0.6 36 0.6 
z
M 42 0.6 
C 42.159122 0.6 42.311748 0.53678 42.424264 0.424264 
C 42.53678 0.311748 42.6 0.159122 42.6 0 
C 42.6 -0.159122 42.53678 -0.311748 42.424264 -0.424264 
C 42.311748 -0.53678 42.159122 -0.6 42 -0.6 
C 41.840878 -0.6 41.688252 -0.53678 41.575736 -0.424264 
C 41.46322 -0.311748 41.4 -0.159122 41.4 0 
C 41.4 0.159122 41.46322 0.311748 41.575736 0.424264 
C 41.688252 0.53678 41.840878 0.6 42 0.6 
z
M 48 0.6 
C 48.159122 0.6 48.311748 0.53678 48.424264 0.424264 
C 48.53678 0.311748 48.6 0.159122 48.6 0 
C 48.6 -0.159122 48.53678 -0.311748 48.424264 -0.424264 
C 48.311748 -0.53678 48.159122 -0.6 48 -0.6 
C 47.840878 -0.6 47.688252 -0.53678 47.575736 -0.424264 
C 47.46322 -0.311748 47.4 -0.159122 47.4 0 
C 47.4 0.159122 47.46322 0.311748 47.575736 0.424264 
C 47.688252 0.53678 47.840878 0.6 48 0.6 
z
M 54 0.6 
C 54.159122 0.6 54.311748 0.53678 54.424264 0.424264 
C 54.53678 0.311748 54.6 0.159122 54.6 0 
C 54.6 -0.159122 54.53678 -0.311748 54.424264 -0.424264 
C 54.311748 -0.53678 54.159122 -0.6 54 -0.6 
C 53.840878 -0.6 53.688252 -0.53678 53.575736 -0.424264 
C 53.46322 -0.311748 53.4 -0.159122 53.4 0 
C 53.4 0.159122 53.46322 0.311748 53.575736 0.424264 
C 53.688252 0.53678 53.840878 0.6 54 0.6 
z
M 60 0.6 
C 60.159122 0.6 60.311748 0.53678 60.424264 0.424264 
C 60.53678 0.311748 60.6 0.159122 60.6 0 
C 60.6 -0.159122 60.53678 -0.311748 60.424264 -0.424264 
C 60.311748 -0.53678 60.159122 -0.6 60 -0.6 
C 59.840878 -0.6 59.688252 -0.53678 59.575736 -0.424264 
C 59.46322 -0.311748 59.4 -0.159122 59.4 0 
C 59.4 0.159122 59.46322 0.311748 59.575736 0.424264 
C 59.688252 0.53678 59.840878 0.6 60 0.6 
z
M 66 0.6 
C 66.159122 0.6 66.311748 0.53678 66.424264 0.424264 
C 66.53678 0.311748 66.6 0.159122 66.6 0 
C 66.6 -0.159122 66.53678 -0.311748 66.424264 -0.424264 
C 66.311748 -0.53678 66.159122 -0.6 66 -0.6 
C 65.840878 -0.6 65.688252 -0.53678 65.575736 -0.424264 
C 65.46322 -0.311748 65.4 -0.159122 65.4 0 
C 65.4 0.159122 65.46322 0.311748 65.575736 0.424264 
C 65.688252 0.53678 65.840878 0.6 66 0.6 
z
M 72 0.6 
C 72.159122 0.6 72.311748 0.53678 72.424264 0.424264 
C 72.53678 0.311748 72.6 0.159122 72.6 0 
C 72.6 -0.159122 72.53678 -0.311748 72.424264 -0.424264 
C 72.311748 -0.53678 72.159122 -0.6 72 -0.6 
C 71.840878 -0.6 71.688252 -0.53678 71.575736 -0.424264 
C 71.46322 -0.311748 71.4 -0.159122 71.4 0 
C 71.4 0.159122 71.46322 0.311748 71.575736 0.424264 
C 71.688252 0.53678 71.840878 0.6 72 0.6 
z
" style="fill: #000000; stroke: #000000; stroke-width: 1.0; stroke-linecap: butt; stroke-linejoin: miter"/>
  </pattern>
  <pattern id="hf32ccce3f5" patternUnits="userSpaceOnUse" x="0" y="0" width="72" height="72">
   <rect x="0" y="0" width="73" height="73" fill="#cc79a7"/>
   <path d="M -36 36 
L 36 -36 
M -30 42 
L 42 -30 
M -24 48 
L 48 -24 
M -18 54 
L 54 -18 
M -12 60 
L 60 -12 
M -6 66 
L 66 -6 
M 0 72 
L 72 0 
M 6 78 
L 78 6 
M 12 84 
L 84 12 
M 18 90 
L 90 18 
M 24 96 
L 96 24 
M 30 102 
L 102 30 
M 36 108 
L 108 36 
M -36 36 
L 36 108 
M -30 30 
L 42 102 
M -24 24 
L 48 96 
M -18 18 
L 54 90 
M -12 12 
L 60 84 
M -6 6 
L 66 78 
M 0 0 
L 72 72 
M 6 -6 
L 78 66 
M 12 -12 
L 84 60 
M 18 -18 
L 90 54 
M 24 -24 
L 96 48 
M 30 -30 
L 102 42 
M 36 -36 
L 108 36 
" style="fill: #000000; stroke: #000000; stroke-width: 1.0; stroke-linecap: butt; stroke-linejoin: miter"/>
  </pattern>
 </defs>
</svg>
